<svg id="svg" version="1.1" xmlns="http://www.w3.org/2000/svg" xmlns:xlink="http://www.w3.org/1999/xlink" width="400" height="400" viewBox="0, 0, 400,400"><g id="svgg"><path id="path0" d="M65.862 29.685 C 65.071 30.174,64.972 65.313,65.760 65.967 C 66.212 66.342,68.743 66.468,75.614 66.457 C 80.700 66.449,85.297 66.609,85.830 66.811 L 86.800 67.180 86.794 83.290 C 86.791 92.151,86.652 99.614,86.485 99.876 C 86.272 100.211,83.177 100.428,75.992 100.613 C 70.386 100.758,65.710 100.964,65.600 101.071 C 65.490 101.178,65.350 105.976,65.288 111.733 C 65.226 117.490,65.095 122.576,64.996 123.036 C 64.822 123.849,64.538 123.878,54.376 124.132 C 42.099 124.439,43.199 124.046,43.206 128.124 C 43.215 132.732,42.318 132.365,54.223 132.635 C 59.931 132.765,64.738 133.002,64.906 133.161 C 65.418 133.647,65.279 300.504,64.766 300.821 C 64.525 300.970,60.773 301.178,56.429 301.282 C 52.084 301.387,48.321 301.602,48.065 301.760 C 47.724 301.971,47.600 306.399,47.600 318.377 L 47.600 334.707 48.500 334.948 C 48.995 335.081,52.854 335.192,57.076 335.195 C 62.773 335.199,64.836 335.329,65.076 335.700 C 65.582 336.481,65.229 356.135,64.704 356.460 C 64.462 356.609,62.112 356.750,59.482 356.773 C 53.609 356.824,54.000 356.542,54.000 360.744 C 54.000 365.259,53.924 365.199,59.580 365.206 C 65.809 365.214,65.392 364.678,65.264 372.527 C 65.174 378.042,65.257 379.200,65.780 379.723 C 66.628 380.571,152.336 380.728,154.000 379.884 L 155.000 379.376 155.103 357.536 C 155.201 336.977,155.166 335.685,154.503 335.527 C 154.117 335.434,150.290 335.307,146.000 335.245 C 141.700 335.183,138.021 334.959,137.800 334.746 C 137.079 334.050,137.272 302.052,138.000 301.592 C 138.330 301.383,141.390 301.194,144.800 301.171 C 148.210 301.148,151.900 301.011,153.000 300.865 L 155.000 300.600 155.200 295.884 C 155.351 292.320,155.544 291.080,155.990 290.805 C 156.331 290.595,170.623 290.432,189.790 290.418 C 219.200 290.398,233.325 290.103,239.200 289.385 C 243.353 288.878,256.036 286.179,259.000 285.172 C 259.660 284.948,262.587 283.965,265.504 282.987 C 268.421 282.010,271.661 280.781,272.704 280.257 C 273.747 279.732,274.984 279.185,275.453 279.040 C 275.922 278.895,277.812 277.949,279.653 276.937 C 281.494 275.926,283.555 274.806,284.233 274.449 C 290.244 271.284,300.954 263.357,306.090 258.271 C 310.173 254.227,308.850 254.517,324.752 254.184 C 338.472 253.896,338.925 253.861,339.613 253.044 C 340.003 252.580,341.318 251.030,342.536 249.600 C 345.500 246.118,345.922 246.263,331.486 245.800 C 317.891 245.364,317.566 245.292,319.565 243.146 C 320.381 242.269,320.888 241.540,323.838 237.000 C 327.278 231.705,333.802 219.163,335.394 214.785 C 335.752 213.803,336.394 212.010,336.822 210.800 C 337.250 209.590,337.776 208.240,337.991 207.800 C 338.421 206.918,339.467 203.311,341.238 196.600 C 342.410 192.160,343.837 184.226,345.050 175.400 C 346.735 163.148,345.419 141.059,342.203 127.600 C 341.914 126.390,341.465 124.410,341.206 123.200 C 340.947 121.990,340.194 119.380,339.533 117.400 C 336.729 109.000,335.135 104.534,334.586 103.538 C 333.021 100.702,333.761 100.478,344.799 100.448 C 349.714 100.435,353.898 100.262,354.097 100.063 C 354.583 99.577,348.706 88.016,345.728 83.600 C 345.208 82.830,344.245 81.390,343.588 80.400 C 340.368 75.555,333.747 67.610,332.600 67.217 C 331.940 66.991,326.897 66.757,321.394 66.697 C 309.923 66.573,310.400 66.711,306.999 62.536 C 304.346 59.279,303.859 59.477,314.667 59.424 C 321.425 59.391,321.398 59.207,313.807 53.392 L 310.868 51.141 301.960 50.964 L 293.052 50.786 290.626 49.386 C 289.292 48.615,286.580 46.976,284.600 45.742 C 282.620 44.508,279.385 42.788,277.411 41.920 C 275.437 41.051,273.367 40.085,272.811 39.773 C 272.255 39.461,271.260 39.001,270.600 38.752 C 255.594 33.080,243.637 30.388,230.800 29.789 C 223.225 29.435,66.426 29.337,65.862 29.685 M286.167 51.043 C 287.051 51.382,287.096 58.456,286.220 59.183 C 285.660 59.648,272.056 59.768,270.300 59.323 C 269.700 59.171,269.601 58.650,269.606 55.673 C 269.614 51.374,269.676 51.279,272.610 51.098 C 276.957 50.831,285.524 50.796,286.167 51.043 M221.600 109.613 C 234.161 110.962,242.180 115.935,248.914 126.552 C 252.681 132.489,252.673 132.514,247.004 132.795 C 242.076 133.039,242.311 132.862,243.272 135.600 C 243.696 136.810,244.198 138.399,244.387 139.132 C 244.873 141.018,244.766 140.980,250.131 141.200 L 254.999 141.400 255.508 142.959 C 257.014 147.567,257.726 161.581,256.787 168.123 C 253.692 189.675,243.052 204.544,227.788 208.650 L 223.800 209.722 189.934 209.761 C 171.308 209.782,155.918 209.650,155.734 209.468 C 155.081 208.818,155.092 195.089,155.746 194.200 C 156.306 193.440,156.867 193.394,167.052 193.287 C 179.386 193.157,178.498 193.503,178.292 188.905 C 178.106 184.764,179.425 185.225,166.960 184.947 C 157.838 184.744,156.124 184.612,155.700 184.077 C 155.177 183.419,154.933 112.438,155.447 110.521 C 155.576 110.038,155.979 109.562,156.341 109.463 C 157.620 109.113,218.246 109.252,221.600 109.613 M98.373 124.567 C 98.664 124.918,98.790 126.416,98.716 128.650 L 98.600 132.180 96.800 132.497 C 93.861 133.014,78.153 132.625,77.421 132.017 C 76.677 131.400,76.524 125.236,77.235 124.525 C 77.943 123.817,97.783 123.857,98.373 124.567 M275.757 133.433 C 276.204 134.597,276.015 139.827,275.500 140.529 C 275.087 141.092,274.282 141.215,270.876 141.234 C 265.677 141.264,265.600 141.205,265.600 137.184 C 265.600 132.563,265.319 132.800,270.800 132.800 C 274.730 132.800,275.555 132.905,275.757 133.433 M131.464 185.253 C 132.359 185.996,132.210 193.079,131.293 193.370 C 130.445 193.640,111.364 193.604,110.153 193.331 C 109.140 193.102,108.391 187.112,109.189 185.621 C 109.694 184.676,130.357 184.335,131.464 185.253 M290.571 246.229 C 291.364 247.021,291.461 252.691,290.700 253.729 C 290.243 254.353,289.031 254.403,276.600 254.306 L 263.000 254.200 262.885 250.293 C 262.776 246.545,262.808 246.370,263.685 246.018 C 265.434 245.316,289.850 245.507,290.571 246.229 M88.316 360.540 C 88.472 365.290,88.581 365.200,82.631 365.200 C 76.761 365.200,76.800 365.227,76.800 361.153 C 76.800 356.486,76.417 356.760,82.747 356.889 L 88.200 357.000 88.316 360.540 " stroke="none" fill="#050a0a" fill-rule="evenodd"></path><path id="path1" d="M106.332 29.500 C 126.644 29.557,159.764 29.557,179.932 29.500 C 200.099 29.443,183.480 29.396,143.000 29.396 C 102.520 29.396,86.019 29.443,106.332 29.500 M227.600 29.650 C 243.144 30.240,254.363 32.615,270.600 38.752 C 271.260 39.001,272.255 39.461,272.811 39.773 C 273.367 40.085,275.437 41.051,277.411 41.920 C 279.385 42.788,282.620 44.508,284.600 45.742 C 286.580 46.976,289.292 48.615,290.626 49.386 L 293.052 50.786 302.026 50.916 C 306.962 50.988,309.830 50.936,308.400 50.803 C 306.024 50.580,305.456 50.326,301.800 47.848 C 296.834 44.482,286.560 39.429,280.200 37.225 C 277.560 36.309,275.040 35.406,274.600 35.218 C 273.202 34.619,265.584 32.783,260.200 31.747 C 252.264 30.221,238.221 29.198,226.400 29.287 L 219.400 29.339 227.600 29.650 M313.909 51.159 L 311.219 51.400 314.948 54.300 C 321.430 59.342,321.427 59.391,314.667 59.424 C 303.859 59.477,304.346 59.279,306.999 62.536 C 310.319 66.611,310.266 66.593,319.000 66.641 C 323.180 66.664,326.006 66.550,325.280 66.388 C 324.554 66.226,323.905 66.027,323.839 65.946 C 323.773 65.866,322.613 64.567,321.260 63.061 C 318.116 59.557,318.061 59.600,325.791 59.600 C 335.022 59.600,335.048 59.570,329.713 55.174 C 324.634 50.988,322.336 50.405,313.909 51.159 M269.843 51.833 C 269.196 53.519,269.585 59.141,270.366 59.389 C 272.605 60.100,273.000 59.470,273.000 55.182 L 273.000 51.200 271.543 51.200 C 270.583 51.200,270.003 51.416,269.843 51.833 M330.000 66.830 C 331.430 66.975,332.870 67.217,333.200 67.367 C 333.834 67.654,341.556 77.343,343.588 80.400 C 344.245 81.390,345.208 82.830,345.728 83.600 C 348.561 87.800,354.588 99.578,354.129 100.018 C 353.948 100.191,353.350 100.393,352.800 100.466 C 351.894 100.587,361.069 100.577,365.700 100.452 C 368.797 100.368,367.285 95.766,361.017 86.200 C 360.296 85.100,358.850 82.850,357.802 81.200 C 356.755 79.550,355.650 77.930,355.347 77.600 C 355.043 77.270,353.552 75.362,352.032 73.360 C 346.726 66.373,346.755 66.385,335.200 66.492 C 329.903 66.541,328.234 66.649,330.000 66.830 M68.305 100.683 C 68.802 100.779,69.522 100.775,69.905 100.675 C 70.287 100.575,69.880 100.496,69.000 100.501 C 68.120 100.505,67.807 100.587,68.305 100.683 M334.900 100.826 C 333.856 101.230,333.762 102.044,334.586 103.538 C 335.135 104.534,336.729 109.000,339.533 117.400 C 340.194 119.380,340.947 121.990,341.206 123.200 C 341.465 124.410,341.914 126.390,342.203 127.600 C 347.846 151.214,346.839 177.075,339.229 204.000 C 338.763 205.650,338.206 207.360,337.991 207.800 C 337.776 208.240,337.250 209.590,336.822 210.800 C 336.394 212.010,335.752 213.803,335.394 214.785 C 333.802 219.163,327.278 231.705,323.838 237.000 C 320.897 241.526,320.382 242.269,319.592 243.117 C 317.471 245.393,317.843 245.499,328.600 245.690 C 333.440 245.776,336.320 245.782,335.000 245.702 C 331.834 245.512,331.625 245.198,333.291 243.129 C 334.057 242.178,335.544 240.050,336.595 238.400 C 337.647 236.750,339.094 234.498,339.812 233.395 C 344.383 226.371,350.680 211.729,353.765 200.950 C 358.059 185.946,358.996 178.461,358.968 159.400 L 358.946 144.200 357.677 137.000 C 356.980 133.040,356.137 128.630,355.804 127.200 C 355.471 125.770,355.024 123.744,354.810 122.698 C 354.310 120.259,350.442 108.706,348.817 104.800 C 347.187 100.881,347.187 101.063,348.800 100.782 C 349.570 100.648,346.960 100.525,343.000 100.508 C 339.040 100.492,335.395 100.635,334.900 100.826 M156.341 109.468 C 155.979 109.564,155.576 110.038,155.447 110.521 C 154.933 112.437,155.177 183.417,155.700 184.111 C 156.124 184.674,157.211 184.792,162.881 184.887 C 167.101 184.959,169.422 184.860,169.181 184.620 C 168.382 183.823,168.696 109.686,169.500 109.476 C 169.885 109.375,167.230 109.293,163.600 109.293 C 159.970 109.293,156.703 109.372,156.341 109.468 M45.900 124.293 C 46.835 124.377,48.365 124.377,49.300 124.293 C 50.235 124.209,49.470 124.140,47.600 124.140 C 45.730 124.140,44.965 124.209,45.900 124.293 M77.280 124.480 C 76.616 125.144,76.633 131.365,77.300 131.912 C 77.984 132.474,82.096 132.946,83.695 132.647 L 85.000 132.402 85.000 128.501 C 85.000 125.421,84.874 124.543,84.400 124.328 C 83.341 123.848,77.793 123.967,77.280 124.480 M46.112 132.695 C 47.164 132.777,48.784 132.776,49.712 132.692 C 50.640 132.608,49.780 132.541,47.800 132.542 C 45.820 132.543,45.060 132.612,46.112 132.695 M109.194 185.611 C 108.913 186.135,108.857 187.617,109.034 189.803 L 109.309 193.184 110.690 193.443 C 112.015 193.692,117.471 193.468,117.776 193.152 C 117.857 193.069,117.986 191.155,118.062 188.900 L 118.200 184.799 113.914 184.800 C 110.018 184.800,109.589 184.874,109.194 185.611 M174.453 185.097 L 177.906 185.230 178.153 186.465 C 178.498 188.188,178.451 192.101,178.078 192.687 C 177.851 193.045,174.931 193.204,167.052 193.287 C 156.867 193.394,156.306 193.440,155.746 194.200 C 155.093 195.088,155.081 208.817,155.733 209.468 C 155.916 209.650,168.516 209.807,183.733 209.815 C 204.472 209.826,206.066 209.800,190.100 209.711 L 168.800 209.593 168.800 201.597 L 168.800 193.600 173.700 193.576 C 193.279 193.479,191.672 193.871,191.642 189.202 C 191.611 184.493,192.343 184.786,180.851 184.882 C 175.433 184.927,172.554 185.024,174.453 185.097 M263.685 246.018 C 262.808 246.370,262.776 246.545,262.885 250.293 L 263.000 254.200 270.190 254.310 C 275.860 254.396,277.276 254.316,276.890 253.930 C 276.232 253.272,276.224 246.736,276.880 246.080 C 277.471 245.489,265.147 245.431,263.685 246.018 M342.470 245.874 C 344.957 246.163,344.966 246.733,342.529 249.602 C 341.315 251.031,340.003 252.580,339.613 253.044 C 338.925 253.861,338.472 253.896,324.752 254.184 C 308.850 254.517,310.173 254.227,306.090 258.271 C 300.954 263.357,290.244 271.284,284.233 274.449 C 283.555 274.806,281.494 275.926,279.653 276.937 C 277.812 277.949,275.922 278.895,275.453 279.040 C 274.984 279.185,273.747 279.732,272.704 280.257 C 271.661 280.781,268.421 282.010,265.504 282.987 C 262.587 283.965,259.660 284.948,259.000 285.172 C 247.197 289.182,237.881 290.047,202.800 290.395 L 173.800 290.682 205.000 290.579 C 241.567 290.459,247.325 290.204,260.000 288.136 C 265.289 287.274,274.340 284.949,277.060 283.754 C 277.754 283.449,278.478 283.200,278.670 283.200 C 279.378 283.200,285.492 280.695,290.372 278.405 C 301.218 273.315,310.189 267.179,319.666 258.367 L 323.932 254.400 337.592 254.400 C 352.013 254.400,352.280 254.368,353.755 252.494 C 354.179 251.955,354.822 251.218,355.185 250.857 C 359.844 246.213,359.474 245.892,349.337 245.788 C 344.752 245.742,341.661 245.780,342.470 245.874 M156.000 290.785 C 155.543 291.077,155.352 292.292,155.200 295.884 L 155.000 300.600 153.000 300.865 C 151.900 301.011,148.210 301.148,144.800 301.171 C 141.390 301.194,138.330 301.383,138.000 301.592 C 137.272 302.052,137.079 334.052,137.800 334.743 C 138.020 334.954,141.667 335.188,145.904 335.264 C 150.141 335.339,153.066 335.261,152.404 335.089 L 151.200 334.777 151.200 318.403 C 151.200 300.504,151.126 301.059,153.474 301.263 C 155.975 301.482,167.505 301.121,168.000 300.810 C 168.458 300.521,168.647 299.312,168.800 295.718 L 169.000 291.005 170.200 290.786 C 170.860 290.665,168.070 290.529,164.000 290.483 C 159.801 290.436,156.340 290.567,156.000 290.785 M49.300 301.476 C 49.685 301.576,50.315 301.576,50.700 301.476 C 51.085 301.375,50.770 301.293,50.000 301.293 C 49.230 301.293,48.915 301.375,49.300 301.476 M154.503 335.476 C 155.165 335.649,155.201 336.947,155.103 357.518 L 155.000 379.376 154.000 379.882 C 153.159 380.308,154.220 380.389,160.653 380.394 C 168.254 380.400,168.308 380.394,168.548 379.500 C 168.985 377.868,168.832 336.808,168.386 335.974 C 167.999 335.251,167.508 335.203,160.886 335.246 C 156.989 335.272,154.117 335.375,154.503 335.476 M80.500 380.276 C 80.885 380.376,81.515 380.376,81.900 380.276 C 82.285 380.175,81.970 380.093,81.200 380.093 C 80.430 380.093,80.115 380.175,80.500 380.276 " stroke="none" fill="#eb374a" fill-rule="evenodd"></path><path id="path2" d="M52.800 29.992 C 51.895 30.564,51.895 65.037,52.800 65.609 C 53.130 65.817,56.100 65.990,59.400 65.994 L 65.400 65.999 65.400 47.799 C 65.400 37.790,65.301 29.600,65.180 29.600 C 65.059 29.600,64.773 29.787,64.545 30.015 C 64.259 30.301,63.793 30.301,63.039 30.015 C 61.676 29.497,53.612 29.478,52.800 29.992 M275.109 51.136 C 275.498 51.382,275.422 51.637,274.791 52.208 C 274.060 52.869,273.977 53.346,274.076 56.279 L 274.188 59.600 280.014 59.600 C 284.012 59.600,285.991 59.449,286.320 59.120 C 287.100 58.340,286.968 51.350,286.167 51.043 C 285.208 50.675,274.525 50.764,275.109 51.136 M73.599 66.964 C 74.217 67.240,74.339 67.530,74.107 68.164 C 73.498 69.824,73.737 99.991,74.362 100.377 C 75.179 100.881,86.132 100.406,86.494 99.851 C 86.656 99.603,86.791 92.151,86.794 83.290 L 86.800 67.180 85.700 66.760 C 84.305 66.227,72.401 66.428,73.599 66.964 M55.427 101.149 C 51.857 101.472,51.962 101.076,52.051 113.900 L 52.121 124.000 58.453 124.000 C 66.043 124.000,65.139 125.619,65.288 111.762 L 65.400 101.325 64.400 101.330 C 63.850 101.333,62.230 101.236,60.800 101.116 C 59.370 100.996,56.952 101.010,55.427 101.149 M215.481 109.527 C 214.926 109.756,215.167 109.932,216.540 110.299 C 217.518 110.561,218.600 111.057,218.946 111.403 C 219.291 111.748,220.997 112.733,222.736 113.592 C 226.998 115.697,232.035 120.664,235.500 126.179 C 239.091 131.894,238.692 133.457,233.773 132.953 C 229.806 132.547,228.886 133.456,230.363 136.321 C 230.782 137.134,231.279 138.332,231.466 138.983 C 231.892 140.461,232.725 140.709,237.451 140.760 C 241.807 140.808,241.968 140.935,242.409 144.696 C 242.584 146.183,242.968 148.030,243.263 148.800 C 245.605 154.907,242.980 175.722,238.623 185.600 C 237.895 187.250,237.061 189.220,236.769 189.978 C 236.477 190.736,235.768 191.906,235.194 192.578 C 234.620 193.250,233.681 194.610,233.108 195.600 C 231.915 197.660,227.096 202.635,224.888 204.085 C 224.070 204.623,222.230 205.759,220.800 206.609 C 219.370 207.460,218.020 208.370,217.800 208.632 C 217.580 208.894,217.130 209.204,216.800 209.322 C 216.470 209.440,217.953 209.551,220.095 209.568 C 238.740 209.720,253.151 193.442,256.787 168.123 C 257.726 161.581,257.014 147.567,255.508 142.959 L 254.999 141.400 250.131 141.200 C 244.766 140.980,244.873 141.018,244.387 139.132 C 244.198 138.399,243.698 136.810,243.276 135.600 C 242.328 132.883,242.405 132.822,246.800 132.778 C 250.868 132.737,252.368 132.321,250.800 131.667 C 249.817 131.258,249.816 131.250,250.710 131.225 C 251.805 131.195,251.615 130.739,248.454 125.805 C 243.483 118.046,232.837 110.400,227.005 110.400 C 226.481 110.400,225.635 110.244,225.126 110.054 C 223.841 109.573,216.359 109.164,215.481 109.527 M86.502 124.900 C 85.979 129.690,86.203 132.436,87.133 132.669 C 88.352 132.975,97.727 132.616,98.335 132.240 C 98.975 131.844,98.963 125.123,98.320 124.480 C 97.303 123.463,86.617 123.843,86.502 124.900 M31.508 124.660 C 30.637 124.906,29.849 127.711,30.142 129.521 C 30.541 131.979,30.699 132.033,37.361 131.979 L 43.400 131.931 43.400 128.238 L 43.400 124.545 37.800 124.505 C 34.720 124.483,31.889 124.553,31.508 124.660 M56.505 132.713 L 52.009 132.826 52.007 217.013 L 52.004 301.200 58.102 301.194 C 61.456 301.191,64.426 301.044,64.703 300.869 C 65.273 300.506,65.475 133.699,64.906 133.164 C 64.454 132.741,61.569 132.586,56.505 132.713 M265.843 133.433 C 265.331 134.765,265.582 140.287,266.176 140.780 C 266.545 141.086,268.233 141.250,270.876 141.234 C 275.860 141.206,276.000 141.089,276.000 136.956 C 276.000 132.595,276.256 132.800,270.800 132.800 C 266.870 132.800,266.045 132.905,265.843 133.433 M119.200 188.299 C 119.310 190.225,119.558 192.045,119.751 192.345 C 119.977 192.695,119.906 193.014,119.551 193.239 C 119.224 193.446,121.514 193.588,125.200 193.588 C 129.716 193.588,131.237 193.471,130.800 193.159 C 130.318 192.815,130.377 192.769,131.100 192.928 C 131.982 193.121,132.000 193.053,132.000 189.443 C 132.000 184.613,132.282 184.800,125.020 184.799 L 119.000 184.799 119.200 188.299 M277.830 246.049 C 278.177 246.609,278.159 253.419,277.810 253.984 C 277.636 254.265,279.628 254.400,283.962 254.400 C 291.479 254.400,291.200 254.575,291.200 249.855 C 291.200 245.551,291.286 245.600,283.748 245.600 C 279.272 245.600,277.630 245.724,277.830 246.049 M35.546 301.847 C 35.186 301.954,34.781 302.594,34.646 303.270 C 34.323 304.886,34.327 331.933,34.650 333.550 L 34.900 334.800 41.241 334.800 L 47.583 334.800 47.691 318.300 L 47.800 301.800 42.000 301.726 C 38.810 301.686,35.906 301.740,35.546 301.847 M52.020 345.480 C 51.955 357.609,52.286 356.800,47.401 356.800 C 41.093 356.800,41.086 356.804,40.594 360.683 C 40.170 364.025,41.216 364.800,46.156 364.800 C 48.241 364.800,50.410 364.976,50.974 365.190 L 52.000 365.580 52.000 372.162 C 52.000 380.434,51.672 380.001,57.929 379.996 C 60.498 379.993,63.230 379.887,64.000 379.759 L 65.400 379.527 65.366 372.728 C 65.327 364.643,65.766 365.214,59.580 365.206 C 53.924 365.199,54.000 365.259,54.000 360.744 C 54.000 356.542,53.609 356.824,59.482 356.773 C 62.112 356.750,64.462 356.609,64.704 356.460 C 65.229 356.135,65.582 336.481,65.076 335.700 C 64.840 335.335,63.046 335.200,58.414 335.200 L 52.075 335.200 52.020 345.480 M77.047 357.422 C 76.598 358.593,76.777 364.217,77.280 364.720 C 78.010 365.450,87.353 365.379,87.967 364.640 C 88.265 364.281,88.391 362.805,88.316 360.540 L 88.200 357.000 82.747 356.889 C 78.038 356.793,77.260 356.866,77.047 357.422 " stroke="none" fill="#11f3de" fill-rule="evenodd"></path><path id="path3" d="M0.000 200.000 L 0.000 400.000 200.000 400.000 L 400.000 400.000 400.000 200.000 L 400.000 0.000 200.000 0.000 L 0.000 0.000 0.000 200.000 M154.000 28.764 C 203.830 28.894,244.870 29.132,245.200 29.294 C 245.530 29.455,248.140 29.879,251.000 30.235 C 259.490 31.292,260.856 31.512,264.000 32.324 C 265.650 32.750,267.720 33.228,268.600 33.385 C 269.480 33.543,270.380 33.814,270.600 33.988 C 270.820 34.163,271.630 34.394,272.400 34.502 C 273.821 34.703,274.563 34.941,279.200 36.692 C 280.630 37.231,282.520 37.940,283.400 38.266 C 284.280 38.593,285.900 39.280,287.000 39.794 C 293.228 42.701,294.340 43.200,294.595 43.200 C 294.749 43.200,296.074 43.984,297.538 44.943 C 299.002 45.902,301.676 47.534,303.481 48.570 L 306.761 50.453 315.561 50.688 L 324.360 50.923 329.080 54.472 C 335.613 59.384,335.588 59.600,328.484 59.600 C 320.713 59.600,319.096 59.848,319.664 60.952 C 320.264 62.117,324.063 65.571,324.800 65.621 C 327.888 65.831,331.769 66.009,338.200 66.233 C 345.545 66.490,348.000 66.928,348.000 67.982 C 348.000 68.180,348.225 68.581,348.500 68.871 C 349.850 70.298,354.800 76.386,354.800 76.619 C 354.800 76.765,355.369 77.603,356.063 78.480 C 357.514 80.311,359.200 82.750,359.200 83.017 C 359.200 83.117,359.805 84.054,360.544 85.099 C 361.283 86.145,362.768 88.710,363.844 90.800 C 364.920 92.890,365.900 94.690,366.022 94.800 C 366.582 95.306,367.974 98.467,368.081 99.476 L 368.200 100.600 358.034 100.900 C 352.442 101.064,347.805 101.262,347.729 101.338 C 347.652 101.415,348.222 102.865,348.995 104.561 C 349.768 106.257,350.400 107.898,350.400 108.209 C 350.400 108.519,350.649 109.364,350.953 110.086 C 351.257 110.809,351.812 112.390,352.187 113.600 C 352.561 114.810,353.017 116.160,353.199 116.600 C 353.382 117.040,353.841 118.750,354.221 120.400 C 354.601 122.050,355.157 123.967,355.456 124.660 C 355.755 125.354,356.000 126.648,356.000 127.537 C 356.000 128.426,356.180 129.264,356.400 129.400 C 356.620 129.536,356.798 130.132,356.795 130.724 C 356.792 131.316,357.051 133.060,357.370 134.600 C 360.962 151.918,359.897 178.109,354.809 197.600 C 354.608 198.370,354.185 199.990,353.868 201.200 C 353.552 202.410,352.989 204.210,352.619 205.200 C 352.248 206.190,351.793 207.540,351.608 208.200 C 351.206 209.629,350.463 211.744,349.782 213.400 C 346.966 220.243,346.611 220.998,342.580 228.692 C 341.401 230.942,340.097 233.282,339.682 233.892 C 339.268 234.501,338.066 236.350,337.011 238.000 C 335.957 239.650,334.488 241.750,333.747 242.667 C 331.728 245.167,331.771 245.195,337.700 245.242 C 360.317 245.421,360.594 245.462,357.830 248.231 C 357.373 248.689,355.941 250.256,354.647 251.713 L 352.294 254.364 345.847 254.577 C 342.301 254.694,335.781 254.927,331.357 255.095 L 323.314 255.400 320.651 257.800 C 319.187 259.120,317.046 260.984,315.894 261.943 C 314.742 262.901,313.170 264.264,312.400 264.971 C 311.630 265.678,309.830 267.043,308.400 268.004 C 301.579 272.586,300.030 273.600,299.854 273.600 C 299.749 273.600,298.089 274.509,296.164 275.621 C 294.240 276.732,291.841 278.004,290.833 278.447 C 289.825 278.890,288.128 279.690,287.063 280.226 C 285.998 280.762,284.887 281.200,284.596 281.200 C 284.304 281.200,283.555 281.450,282.932 281.756 C 281.420 282.498,279.250 283.246,277.900 283.491 C 277.295 283.601,276.800 283.850,276.800 284.045 C 276.800 284.240,276.422 284.400,275.960 284.400 C 275.499 284.400,274.554 284.643,273.860 284.941 C 272.530 285.511,269.671 286.294,267.000 286.820 C 266.120 286.993,264.140 287.441,262.600 287.816 C 259.664 288.529,257.974 288.793,251.400 289.560 C 249.200 289.817,245.960 290.233,244.200 290.484 C 242.064 290.789,228.998 290.993,204.912 291.099 L 168.823 291.256 168.712 296.328 L 168.600 301.400 161.000 301.648 C 156.820 301.784,152.905 301.919,152.300 301.948 L 151.200 302.000 151.200 318.176 C 151.200 328.960,151.339 334.439,151.617 334.610 C 151.846 334.752,155.761 334.898,160.317 334.934 L 168.600 335.000 168.703 357.640 L 168.807 380.280 158.303 380.540 C 152.526 380.682,126.216 380.825,99.836 380.856 C 44.480 380.921,50.737 381.515,50.803 376.200 C 50.825 374.440,50.788 371.470,50.721 369.600 L 50.600 366.200 46.200 366.101 C 39.183 365.944,38.698 365.534,39.096 360.086 C 39.401 355.924,39.898 355.591,45.621 355.710 C 48.250 355.765,50.125 355.634,50.381 355.378 C 50.759 355.001,50.930 348.578,50.829 338.534 L 50.800 335.669 42.388 335.734 C 35.297 335.790,33.915 335.706,33.591 335.200 C 33.358 334.835,33.245 328.098,33.304 318.005 L 33.400 301.411 34.459 300.903 C 35.189 300.553,37.891 300.382,43.159 300.352 L 50.800 300.309 50.856 219.454 C 50.886 174.984,50.925 137.430,50.941 136.000 L 50.972 133.400 40.504 133.400 C 27.796 133.400,28.550 133.727,28.705 128.291 C 28.860 122.850,28.140 123.170,40.434 123.077 L 50.600 123.000 50.855 112.400 C 51.196 98.266,50.489 99.462,58.400 99.626 C 66.465 99.794,71.487 99.717,71.969 99.419 C 72.265 99.236,72.400 94.212,72.400 83.384 L 72.400 67.615 71.500 67.392 C 71.005 67.269,66.570 67.241,61.645 67.329 C 51.302 67.515,51.448 67.561,51.005 63.933 C 50.517 59.938,50.947 30.293,51.507 29.313 C 52.027 28.404,58.787 27.786,62.200 28.336 C 62.860 28.442,104.170 28.635,154.000 28.764 M171.200 110.377 L 169.000 110.600 168.898 147.112 C 168.811 178.042,168.881 183.656,169.354 183.838 C 170.004 184.087,175.529 184.349,184.740 184.566 C 192.437 184.747,192.123 184.554,192.034 189.052 C 191.941 193.803,192.855 193.435,180.321 193.765 C 174.336 193.923,169.295 194.141,169.119 194.250 C 168.944 194.358,168.800 197.767,168.800 201.824 L 168.800 209.200 189.500 209.195 L 210.200 209.190 213.312 208.196 C 221.008 205.738,229.085 199.898,232.214 194.529 C 232.832 193.468,233.829 191.970,234.429 191.200 C 235.028 190.430,235.643 189.350,235.794 188.800 C 235.945 188.250,236.774 186.352,237.636 184.583 C 242.332 174.938,243.988 158.971,241.588 146.469 C 240.703 141.859,241.194 142.238,235.800 142.000 C 230.535 141.768,229.200 141.063,229.200 138.517 C 229.200 137.779,228.930 136.528,228.600 135.738 C 227.205 132.400,228.022 131.600,232.829 131.600 C 237.031 131.600,237.023 131.614,234.800 128.000 C 233.920 126.570,233.200 125.182,233.200 124.916 C 233.200 123.673,224.563 115.759,222.175 114.813 C 220.869 114.295,219.530 113.665,219.200 113.413 C 218.299 112.725,216.513 112.009,213.400 111.091 C 210.579 110.258,177.837 109.704,171.200 110.377 " stroke="none" fill="#fbfbfb" fill-rule="evenodd"></path><path id="path4" d="M56.507 28.284 C 50.498 28.474,51.027 26.808,50.872 46.000 C 50.680 69.784,49.550 67.546,61.645 67.329 C 66.570 67.241,71.005 67.269,71.500 67.392 L 72.400 67.615 72.400 83.384 C 72.400 94.212,72.265 99.236,71.969 99.419 C 71.487 99.717,66.465 99.794,58.400 99.626 C 50.489 99.462,51.196 98.266,50.855 112.400 L 50.600 123.000 40.434 123.077 C 28.140 123.170,28.860 122.850,28.705 128.291 C 28.550 133.727,27.796 133.400,40.504 133.400 L 50.972 133.400 50.941 136.000 C 50.925 137.430,50.886 174.984,50.856 219.454 L 50.800 300.309 43.159 300.352 C 37.891 300.382,35.189 300.553,34.459 300.903 L 33.400 301.411 33.304 318.005 C 33.245 328.098,33.358 334.835,33.591 335.200 C 33.915 335.706,35.297 335.790,42.388 335.734 L 50.800 335.669 50.829 338.534 C 50.930 348.578,50.759 355.001,50.381 355.378 C 50.125 355.634,48.250 355.765,45.621 355.710 C 39.898 355.591,39.401 355.924,39.096 360.086 C 38.698 365.534,39.183 365.944,46.200 366.101 L 50.600 366.200 50.721 369.600 C 50.788 371.470,50.825 374.440,50.803 376.200 C 50.776 378.344,50.945 379.648,51.314 380.152 C 51.833 380.859,155.654 381.279,156.356 380.577 C 156.454 380.480,136.193 380.400,111.333 380.400 C 86.473 380.400,65.998 380.265,65.833 380.100 C 65.668 379.935,62.789 379.864,59.436 379.941 C 51.467 380.126,52.000 380.683,52.000 372.162 L 52.000 365.580 50.974 365.190 C 50.410 364.976,48.241 364.800,46.156 364.800 C 41.216 364.800,40.170 364.025,40.594 360.683 C 41.086 356.804,41.093 356.800,47.401 356.800 C 52.280 356.800,51.952 357.596,52.022 345.582 L 52.082 335.400 50.141 335.135 C 49.073 334.989,45.196 334.854,41.525 334.835 L 34.849 334.800 34.600 333.100 C 34.236 330.617,34.540 302.525,34.935 302.133 C 35.120 301.950,38.090 301.760,41.535 301.710 C 48.053 301.617,51.519 301.414,51.825 301.108 C 51.923 301.010,52.006 263.145,52.008 216.965 L 52.012 133.000 48.106 132.800 C 45.958 132.690,43.965 132.448,43.678 132.263 C 43.390 132.077,40.493 131.949,37.240 131.978 C 30.712 132.037,30.541 131.978,30.142 129.521 C 29.422 125.082,30.584 124.336,38.183 124.358 C 41.053 124.367,45.364 124.245,47.765 124.087 L 52.131 123.800 52.055 113.800 C 51.956 100.710,51.692 101.476,56.428 101.103 C 58.591 100.933,61.112 100.973,62.338 101.197 C 63.892 101.480,64.712 101.457,65.338 101.110 C 65.812 100.848,67.730 100.610,69.600 100.582 C 71.470 100.554,73.180 100.502,73.400 100.466 C 73.659 100.424,73.800 94.857,73.800 84.700 C 73.800 76.065,73.940 68.619,74.110 68.153 C 74.495 67.102,73.032 66.381,70.600 66.422 C 66.402 66.494,53.221 65.860,52.741 65.564 C 51.889 65.037,51.946 30.532,52.800 29.992 C 53.607 29.482,61.672 29.495,63.023 30.009 C 63.813 30.309,64.260 30.283,64.710 29.909 C 65.201 29.502,81.866 29.377,148.161 29.285 C 226.211 29.177,233.327 29.242,249.200 30.210 C 251.291 30.337,251.271 30.326,248.800 29.989 C 247.370 29.793,245.840 29.499,245.400 29.334 C 244.960 29.169,203.830 28.920,154.000 28.781 C 104.170 28.642,62.860 28.442,62.200 28.336 C 61.540 28.229,58.978 28.206,56.507 28.284 M258.033 31.344 C 258.125 31.424,259.010 31.596,260.000 31.727 C 261.202 31.886,261.534 31.847,261.000 31.610 C 260.236 31.272,257.686 31.043,258.033 31.344 M302.000 47.782 C 302.000 49.244,306.470 50.745,311.400 50.938 L 316.600 51.141 311.400 50.671 C 306.652 50.241,306.017 50.087,304.100 48.904 C 302.945 48.191,302.000 47.686,302.000 47.782 M322.400 50.955 C 322.400 51.040,322.930 51.187,323.579 51.282 C 324.227 51.377,324.667 51.308,324.555 51.128 C 324.357 50.807,322.400 50.650,322.400 50.955 M272.970 51.733 C 272.475 53.025,272.992 59.000,273.600 59.000 C 274.092 59.000,274.174 58.471,274.057 56.072 C 273.930 53.464,274.014 53.037,274.827 52.172 L 275.739 51.200 274.457 51.200 C 273.752 51.200,273.083 51.440,272.970 51.733 M332.525 57.578 C 333.393 58.615,333.531 58.998,333.125 59.255 C 332.729 59.506,332.772 59.589,333.300 59.594 C 334.450 59.604,334.107 58.229,332.700 57.193 L 331.400 56.235 332.525 57.578 M319.017 59.972 C 318.891 60.177,318.998 60.475,319.255 60.634 C 319.538 60.809,319.617 60.751,319.454 60.488 C 319.287 60.216,319.679 59.991,320.492 59.890 L 321.800 59.728 320.524 59.664 C 319.822 59.629,319.144 59.768,319.017 59.972 M322.812 64.696 C 324.025 66.381,324.105 66.400,330.848 66.542 C 337.347 66.679,335.571 66.138,328.428 65.806 C 324.556 65.626,324.171 65.532,323.067 64.506 L 321.879 63.400 322.812 64.696 M345.000 66.687 C 345.440 66.794,346.382 67.320,347.093 67.856 C 347.986 68.529,348.312 68.636,348.145 68.200 C 347.852 67.437,345.913 66.382,344.920 66.446 C 344.308 66.486,344.320 66.522,345.000 66.687 M367.160 97.525 C 368.193 99.456,367.758 100.344,365.700 100.506 L 363.800 100.656 365.876 100.728 C 367.018 100.768,368.047 100.648,368.161 100.462 C 368.451 99.994,367.664 97.287,367.145 96.966 C 366.857 96.788,366.862 96.968,367.160 97.525 M349.000 100.731 C 345.656 101.095,347.854 101.371,352.116 101.122 C 360.570 100.628,361.151 100.536,355.600 100.568 C 352.630 100.586,349.660 100.659,349.000 100.731 M349.214 105.654 C 349.206 105.794,349.463 106.514,349.784 107.254 C 350.106 107.994,350.369 108.330,350.370 108.000 C 350.372 107.424,349.243 105.134,349.214 105.654 M169.500 109.468 C 167.518 110.008,168.918 110.629,171.500 110.354 C 178.170 109.645,210.425 110.211,213.400 111.090 C 216.513 112.010,218.299 112.725,219.200 113.413 C 219.530 113.665,220.869 114.295,222.175 114.813 C 224.563 115.759,233.200 123.673,233.200 124.916 C 233.200 125.182,233.920 126.570,234.800 128.000 C 237.023 131.614,237.031 131.600,232.829 131.600 C 228.022 131.600,227.205 132.400,228.600 135.738 C 228.930 136.528,229.200 137.779,229.200 138.517 C 229.200 141.063,230.535 141.768,235.800 142.000 C 241.194 142.238,240.703 141.859,241.588 146.469 C 243.988 158.971,242.332 174.938,237.636 184.583 C 236.774 186.352,235.945 188.250,235.794 188.800 C 235.643 189.350,235.028 190.430,234.429 191.200 C 233.829 191.970,232.832 193.468,232.214 194.529 C 230.141 198.087,225.220 202.505,220.559 204.994 C 212.712 209.185,214.478 208.941,190.000 209.200 L 168.600 209.426 192.932 209.413 C 214.470 209.402,217.318 209.329,217.732 208.778 C 217.990 208.436,219.370 207.460,220.800 206.609 C 222.230 205.759,224.070 204.623,224.888 204.085 C 227.096 202.635,231.915 197.660,233.108 195.600 C 233.681 194.610,234.620 193.250,235.194 192.578 C 235.768 191.906,236.477 190.736,236.769 189.978 C 237.061 189.220,237.895 187.250,238.623 185.600 C 242.980 175.722,245.605 154.907,243.263 148.800 C 242.968 148.030,242.584 146.183,242.409 144.696 C 241.968 140.935,241.807 140.808,237.451 140.760 C 232.725 140.709,231.892 140.461,231.466 138.983 C 231.279 138.332,230.782 137.134,230.363 136.321 C 228.886 133.456,229.806 132.547,233.773 132.953 C 238.692 133.457,239.091 131.894,235.500 126.179 C 232.035 120.664,226.998 115.697,222.736 113.592 C 220.997 112.733,219.301 111.758,218.968 111.425 C 217.086 109.543,215.532 109.422,192.200 109.347 C 180.100 109.309,169.885 109.363,169.500 109.468 M85.067 124.667 C 84.660 125.073,84.761 131.319,85.184 131.988 C 85.827 133.005,86.199 132.027,86.219 129.266 C 86.229 127.800,86.384 126.105,86.562 125.500 C 86.881 124.420,85.874 123.859,85.067 124.667 M358.893 147.600 C 358.893 148.370,358.975 148.685,359.076 148.300 C 359.176 147.915,359.176 147.285,359.076 146.900 C 358.975 146.515,358.893 146.830,358.893 147.600 M359.350 160.200 C 359.351 162.620,359.416 163.558,359.496 162.285 C 359.576 161.012,359.575 159.032,359.494 157.885 C 359.414 156.738,359.349 157.780,359.350 160.200 M358.914 173.000 C 358.917 174.100,358.995 174.503,359.087 173.895 C 359.179 173.286,359.177 172.386,359.082 171.895 C 358.987 171.403,358.911 171.900,358.914 173.000 M357.693 183.200 C 357.693 183.970,357.775 184.285,357.876 183.900 C 357.976 183.515,357.976 182.885,357.876 182.500 C 357.775 182.115,357.693 182.430,357.693 183.200 M168.881 184.044 C 169.024 184.475,170.226 184.616,174.233 184.672 C 177.846 184.723,179.040 184.635,178.203 184.381 C 177.545 184.181,175.356 184.034,173.339 184.054 C 171.322 184.075,169.452 183.956,169.184 183.790 C 168.870 183.596,168.762 183.687,168.881 184.044 M190.679 184.976 C 191.355 185.468,191.587 186.100,191.679 187.708 L 191.800 189.800 192.015 188.056 C 192.263 186.037,191.718 184.665,190.590 184.472 C 189.860 184.347,189.867 184.385,190.679 184.976 M118.267 185.467 C 118.120 185.613,118.000 187.413,118.000 189.467 L 118.000 193.200 119.043 193.200 C 119.894 193.200,120.025 193.071,119.758 192.500 C 119.578 192.115,119.366 190.315,119.286 188.500 C 119.151 185.430,118.938 184.795,118.267 185.467 M191.664 191.313 C 191.615 192.474,191.391 192.910,190.700 193.188 C 190.091 193.432,190.010 193.557,190.451 193.575 C 191.463 193.614,192.071 192.582,191.891 191.126 L 191.728 189.800 191.664 191.313 M173.700 193.499 C 171.005 193.568,168.800 193.754,168.799 193.912 C 168.798 194.289,179.043 193.891,179.434 193.500 C 179.599 193.335,179.478 193.239,179.167 193.286 C 178.855 193.334,176.395 193.430,173.700 193.499 M346.465 220.617 C 345.795 222.088,345.923 222.402,346.647 221.065 C 346.986 220.440,347.188 219.854,347.096 219.763 C 347.005 219.671,346.721 220.056,346.465 220.617 M332.032 244.676 C 331.973 245.563,332.837 245.679,339.988 245.739 C 343.913 245.773,346.916 245.668,346.662 245.506 C 346.408 245.344,343.110 245.209,339.333 245.206 C 334.219 245.202,332.415 245.072,332.265 244.700 C 332.119 244.339,332.054 244.333,332.032 244.676 M355.600 245.600 C 354.221 245.890,354.227 245.895,356.067 245.947 C 358.140 246.006,358.648 246.588,357.648 247.758 C 357.034 248.477,357.045 248.493,357.850 248.071 C 359.457 247.229,359.038 244.976,357.326 245.253 C 357.147 245.282,356.370 245.438,355.600 245.600 M276.880 246.080 C 276.164 246.796,276.235 253.365,276.964 253.970 C 277.849 254.705,278.065 253.936,278.087 249.958 C 278.109 246.293,277.766 245.194,276.880 246.080 M322.181 256.078 L 320.600 257.757 322.114 256.478 L 323.628 255.200 331.114 255.194 C 335.256 255.190,338.868 255.015,339.200 254.800 C 339.598 254.543,337.106 254.410,331.781 254.406 L 323.762 254.400 322.181 256.078 M317.178 260.700 L 315.800 262.200 317.300 260.822 C 318.696 259.538,318.984 259.200,318.678 259.200 C 318.612 259.200,317.937 259.875,317.178 260.700 M257.700 288.676 C 258.085 288.776,258.715 288.776,259.100 288.676 C 259.485 288.575,259.170 288.493,258.400 288.493 C 257.630 288.493,257.315 288.575,257.700 288.676 M247.507 289.890 C 248.226 289.979,249.306 289.977,249.907 289.886 C 250.508 289.795,249.920 289.722,248.600 289.724 C 247.280 289.726,246.788 289.801,247.507 289.890 M232.400 290.433 C 228.990 290.596,213.450 290.729,197.868 290.730 C 182.285 290.731,169.416 290.851,169.269 290.997 C 168.833 291.434,241.608 290.936,243.400 290.490 C 245.398 289.993,241.980 289.975,232.400 290.433 M168.084 300.639 C 167.633 301.129,157.070 301.579,153.467 301.262 C 153.063 301.227,152.452 301.355,152.107 301.548 C 151.742 301.752,154.962 301.817,159.841 301.703 C 167.862 301.515,169.066 301.349,168.745 300.474 C 168.664 300.252,168.374 300.325,168.084 300.639 M153.712 335.095 C 154.764 335.177,156.384 335.176,157.312 335.092 C 158.240 335.008,157.380 334.941,155.400 334.942 C 153.420 334.943,152.660 335.012,153.712 335.095 M165.200 335.081 C 167.052 335.186,167.954 335.426,168.336 335.914 C 168.831 336.548,168.861 336.540,168.732 335.800 C 168.607 335.087,168.265 334.996,165.596 334.967 C 162.749 334.936,162.729 334.942,165.200 335.081 " stroke="none" fill="#9ce3df" fill-rule="evenodd"></path></g></svg>