<svg id="svg" version="1.1" xmlns="http://www.w3.org/2000/svg" xmlns:xlink="http://www.w3.org/1999/xlink" width="400" height="400" viewBox="0, 0, 400,400"><g id="svgg"><path id="path0" d="M0.000 200.000 L 0.000 400.000 200.000 400.000 L 400.000 400.000 400.000 200.000 L 400.000 0.000 200.000 0.000 L 0.000 0.000 0.000 200.000 M250.800 8.929 C 258.223 9.104,260.800 9.646,260.800 11.035 C 260.800 11.701,256.753 16.947,255.805 17.510 C 255.264 17.831,254.400 19.327,254.400 19.942 C 254.400 20.416,257.505 21.433,260.000 21.777 C 264.300 22.369,271.354 24.307,279.800 27.216 C 288.311 30.148,299.951 36.201,300.922 38.200 L 301.505 39.400 307.270 33.700 C 313.942 27.103,313.792 27.153,317.013 30.429 C 320.549 34.027,320.242 34.020,323.799 30.588 C 327.562 26.958,327.589 26.956,330.812 30.229 C 334.555 34.030,334.238 34.004,337.588 30.785 C 340.998 27.507,341.523 27.420,344.067 29.715 C 347.507 32.819,349.254 35.151,348.790 36.018 C 348.237 37.052,328.420 56.906,327.038 57.812 L 325.946 58.527 322.823 55.423 C 320.170 52.786,319.587 52.380,318.950 52.731 C 317.896 53.311,312.135 59.198,312.610 59.210 C 312.825 59.215,314.170 60.647,315.600 62.391 C 318.791 66.284,318.489 66.283,322.352 62.400 C 324.102 60.640,325.864 59.201,326.267 59.203 C 326.956 59.206,329.703 62.275,332.000 65.607 C 334.547 69.302,339.200 76.383,339.200 76.563 C 339.200 76.674,339.605 77.362,340.100 78.093 C 348.812 90.957,355.969 116.875,356.650 138.031 C 357.008 149.137,357.335 148.137,351.384 154.114 C 345.489 160.034,344.897 161.107,344.565 166.461 C 343.756 179.543,337.298 203.777,333.555 207.780 C 333.360 207.989,333.200 208.377,333.200 208.643 C 333.200 209.242,331.070 213.780,330.028 215.400 C 329.603 216.060,328.770 217.500,328.177 218.600 C 327.583 219.700,326.609 221.230,326.013 222.000 C 325.417 222.770,324.411 224.364,323.778 225.542 C 323.145 226.720,321.984 228.430,321.198 229.342 C 320.411 230.254,318.579 232.530,317.125 234.400 C 313.414 239.173,305.108 247.146,298.787 252.000 C 298.071 252.550,297.106 253.360,296.642 253.800 L 295.800 254.600 296.861 254.723 C 297.692 254.819,298.298 255.459,299.661 257.681 C 302.399 262.145,303.457 263.200,304.195 262.200 C 306.781 258.696,310.814 255.613,312.144 256.123 C 312.746 256.354,317.928 264.422,325.273 276.565 C 326.773 279.044,328.376 281.641,330.690 285.338 C 331.400 286.472,332.178 288.098,332.419 288.951 L 332.858 290.503 338.002 285.413 L 343.146 280.323 344.400 281.062 C 345.089 281.468,346.555 282.745,347.658 283.900 C 350.217 286.579,350.248 286.574,354.039 282.963 C 357.685 279.490,357.087 279.446,361.099 283.484 C 364.242 286.649,364.624 286.644,367.728 283.400 C 370.917 280.066,371.319 280.068,374.803 283.431 C 379.965 288.414,380.771 286.881,364.281 303.445 C 357.248 310.510,351.342 316.561,351.157 316.891 C 350.822 317.490,352.533 321.373,353.745 322.762 C 354.051 323.113,355.148 324.905,356.184 326.744 C 357.219 328.584,358.816 331.212,359.733 332.585 C 364.008 338.987,371.432 351.236,372.464 353.590 C 374.169 357.480,373.907 366.558,372.063 367.471 C 371.699 367.652,343.680 367.835,309.800 367.878 C 275.920 367.921,247.884 367.966,247.497 367.978 C 247.078 367.991,246.529 368.606,246.140 369.500 C 245.171 371.724,237.212 379.200,235.813 379.200 C 234.698 379.200,233.177 377.889,231.040 375.088 C 229.655 373.273,229.372 373.373,225.416 377.077 C 222.376 379.923,221.666 380.213,220.592 379.044 C 219.126 377.449,215.186 374.000,214.829 374.000 C 214.593 374.000,213.298 375.165,211.951 376.588 C 208.438 380.303,208.527 380.308,204.351 376.151 C 202.398 374.207,200.800 372.289,200.800 371.888 C 200.800 371.461,207.044 364.944,215.860 356.169 L 230.920 341.179 230.115 340.290 C 229.441 339.546,227.341 335.968,224.866 331.346 C 224.113 329.941,223.306 329.761,222.242 330.761 C 221.708 331.262,221.059 331.521,220.690 331.379 C 220.126 331.163,217.220 326.761,217.187 326.071 C 217.179 325.922,216.827 325.385,216.404 324.877 C 215.413 323.688,215.034 323.899,211.210 327.772 C 207.070 331.964,207.152 331.998,202.602 324.200 C 201.318 322.000,199.294 318.601,198.104 316.647 C 196.914 314.693,195.774 312.713,195.571 312.247 C 195.368 311.781,194.976 311.046,194.701 310.614 C 192.746 307.548,185.351 294.742,185.107 294.000 C 184.754 292.927,185.862 291.476,190.569 286.847 C 195.686 281.817,195.757 281.654,194.073 278.745 C 192.179 275.472,189.877 271.435,189.199 270.200 C 187.485 267.075,186.607 265.907,185.715 265.568 C 184.343 265.046,169.341 265.097,168.351 265.626 C 167.565 266.047,167.556 266.481,167.626 301.575 C 167.668 322.549,167.546 337.367,167.329 337.755 C 167.127 338.116,164.857 340.543,162.285 343.148 C 156.034 349.478,156.400 348.222,156.400 363.337 C 156.400 377.253,156.305 378.304,154.996 378.801 C 154.205 379.102,123.887 379.383,106.487 379.250 C 98.053 379.185,98.096 379.283,103.940 373.500 C 108.930 368.563,109.215 367.996,106.700 368.008 C 105.127 368.016,104.785 368.232,102.119 370.908 C 91.106 381.964,79.850 393.051,79.363 393.324 C 78.396 393.866,77.454 393.307,74.676 390.543 L 72.017 387.897 70.909 388.621 C 70.299 389.020,68.808 390.393,67.596 391.673 C 64.813 394.612,64.644 394.597,60.972 391.100 C 57.393 387.692,57.376 387.692,54.280 391.034 C 52.776 392.657,51.586 393.600,51.042 393.600 C 50.053 393.600,43.200 387.081,43.200 386.140 C 43.200 385.817,46.722 382.036,51.027 377.737 C 61.122 367.658,61.114 367.680,54.743 367.628 C 51.977 367.606,51.237 367.473,51.043 366.967 C 50.909 366.619,50.800 348.822,50.800 327.417 C 50.800 306.013,50.687 287.937,50.550 287.250 C 50.144 285.218,49.043 285.662,45.222 289.400 C 41.053 293.480,40.896 293.497,37.660 290.209 C 34.111 286.604,34.026 286.598,30.842 289.758 C 29.349 291.240,27.833 292.398,27.390 292.394 C 26.549 292.388,21.950 288.228,20.505 286.167 L 19.642 284.935 21.146 283.167 C 23.633 280.244,49.535 254.609,50.130 254.482 C 50.792 254.340,51.347 259.584,50.970 262.423 C 50.388 266.811,50.838 266.637,57.695 259.822 C 64.138 253.418,64.505 253.144,65.126 254.254 C 65.475 254.878,74.000 246.868,74.000 245.917 C 74.000 244.985,72.587 245.972,69.255 249.232 C 64.425 253.958,64.400 253.945,64.400 246.813 C 64.400 239.759,64.658 239.771,57.758 246.500 C 51.657 252.448,51.539 252.544,51.117 251.879 C 50.949 251.615,50.809 238.700,50.806 223.178 L 50.800 194.955 51.700 193.754 C 52.195 193.094,54.351 190.830,56.492 188.725 C 58.632 186.619,60.567 184.413,60.792 183.822 C 62.076 180.444,61.180 123.100,59.864 124.401 C 53.326 130.859,51.483 132.459,51.164 131.955 C 50.970 131.650,50.809 124.385,50.806 115.810 L 50.800 100.220 48.111 97.510 C 44.826 94.200,45.157 94.195,41.738 97.600 C 40.192 99.140,38.695 100.400,38.412 100.400 C 37.570 100.400,30.800 93.534,30.800 92.680 C 30.800 91.740,49.828 72.647,50.408 73.005 C 50.632 73.144,50.800 75.537,50.800 78.600 C 50.800 81.983,50.958 84.050,51.230 84.218 C 51.468 84.366,54.470 81.693,57.982 78.206 C 64.066 72.164,64.326 71.959,64.884 72.756 C 65.580 73.750,79.600 60.358,79.600 58.700 C 79.600 57.757,77.183 59.780,71.789 65.236 C 63.863 73.254,64.400 73.273,64.400 64.967 C 64.400 61.105,64.267 59.600,63.927 59.600 C 63.667 59.600,60.761 62.255,57.469 65.500 C 52.229 70.665,51.445 71.300,51.170 70.600 C 50.710 69.428,50.731 20.328,51.192 19.600 C 51.525 19.072,58.323 18.987,107.685 18.888 C 138.548 18.827,164.184 18.693,164.653 18.592 C 165.123 18.491,167.635 16.250,170.237 13.613 L 174.967 8.818 181.983 8.671 C 190.177 8.499,240.574 8.688,250.800 8.929 M309.089 59.641 C 308.490 60.324,307.999 60.999,307.997 61.141 C 307.991 61.746,305.079 63.318,304.021 63.288 L 302.869 63.255 303.535 64.425 C 304.433 66.005,304.814 65.915,306.607 63.700 C 307.452 62.655,308.897 61.170,309.818 60.400 C 310.738 59.630,311.415 58.865,311.322 58.700 C 310.976 58.086,310.147 58.436,309.089 59.641 M173.700 99.212 C 173.205 99.411,172.800 99.758,172.800 99.983 C 172.800 100.207,171.675 101.462,170.300 102.770 L 167.800 105.149 167.690 144.475 C 167.630 166.104,167.678 184.205,167.798 184.700 L 168.015 185.600 178.710 185.600 L 189.404 185.600 201.602 173.371 C 216.548 158.388,215.140 159.260,218.651 162.808 C 222.038 166.231,222.024 166.231,225.600 162.800 C 229.140 159.404,229.113 159.406,232.266 162.433 C 235.576 165.611,235.899 165.436,237.951 159.344 C 243.195 143.778,240.535 123.346,231.892 112.800 C 229.238 109.562,229.066 109.427,228.611 110.222 C 228.261 110.835,224.952 114.606,222.200 117.531 C 221.760 117.999,219.106 120.635,216.302 123.391 C 210.078 129.506,210.127 129.495,206.235 125.790 C 202.988 122.699,203.094 122.689,199.339 126.399 C 195.884 129.814,196.153 129.811,192.657 126.462 C 188.809 122.775,188.990 122.786,185.766 126.034 C 184.257 127.555,182.696 128.800,182.297 128.800 C 181.255 128.800,174.726 122.091,174.878 121.176 C 174.990 120.507,190.660 104.339,194.161 101.281 C 196.891 98.896,196.517 98.797,184.913 98.825 C 179.241 98.839,174.195 99.013,173.700 99.212 M343.989 310.258 C 342.653 311.146,338.527 315.140,337.547 316.493 L 336.756 317.586 338.373 320.293 C 339.262 321.782,340.427 323.540,340.961 324.200 L 341.933 325.400 343.266 323.944 C 344.000 323.143,345.898 321.298,347.484 319.844 C 349.070 318.390,350.195 317.200,349.984 317.200 C 349.773 317.200,349.600 317.022,349.600 316.804 C 349.600 316.586,348.806 315.248,347.835 313.830 C 346.865 312.412,345.953 310.881,345.808 310.426 C 345.492 309.428,345.267 309.408,343.989 310.258 M334.087 317.037 C 333.484 318.164,328.529 322.935,327.607 323.276 C 326.844 323.558,326.855 324.800,327.620 324.800 C 328.569 324.800,335.227 317.578,334.869 316.938 C 334.529 316.331,334.460 316.340,334.087 317.037 M249.036 337.246 C 246.002 340.298,245.183 341.343,245.542 341.702 C 246.004 342.164,253.048 335.696,254.041 333.900 C 255.107 331.971,252.640 333.621,249.036 337.246 M235.096 337.233 C 230.775 341.261,230.740 341.346,232.308 343.956 C 232.918 344.970,233.769 346.475,234.199 347.300 C 235.376 349.555,236.103 349.280,240.516 344.920 C 243.637 341.836,244.307 340.980,243.816 340.705 C 243.477 340.515,243.200 340.196,243.200 339.994 C 243.200 339.465,239.592 333.600,239.266 333.600 C 239.115 333.600,237.239 335.235,235.096 337.233 M77.200 366.000 C 75.862 367.195,75.860 367.200,76.866 367.200 C 77.797 367.200,78.652 366.549,79.363 365.300 C 79.900 364.355,78.555 364.791,77.200 366.000 " stroke="none" fill="#f9f9f9" fill-rule="evenodd"></path><path id="path1" d="M244.200 9.349 C 248.648 10.185,248.636 10.309,243.593 15.543 C 241.397 17.822,239.600 19.826,239.600 19.997 C 239.600 20.380,243.240 21.600,244.384 21.600 C 245.659 21.600,258.469 24.662,259.600 25.237 C 259.930 25.405,261.190 25.842,262.400 26.209 C 270.395 28.630,282.187 34.372,290.558 39.918 C 296.930 44.140,296.676 44.072,298.820 42.134 C 302.450 38.855,302.051 37.925,295.460 34.303 C 288.210 30.319,283.521 28.358,273.400 25.077 C 269.726 23.885,262.643 22.141,260.000 21.777 C 257.505 21.433,254.400 20.416,254.400 19.942 C 254.400 19.327,255.264 17.831,255.805 17.510 C 256.753 16.947,260.800 11.701,260.800 11.035 C 260.800 9.569,258.281 9.102,249.800 8.997 C 242.900 8.911,242.130 8.960,244.200 9.349 M337.588 30.785 C 335.025 33.248,334.593 33.519,333.845 33.133 C 333.175 32.787,333.236 32.948,334.140 33.912 C 335.624 35.495,336.020 34.946,326.377 44.671 C 321.880 49.207,318.549 52.794,318.975 52.643 C 319.582 52.427,320.420 53.034,322.848 55.448 L 325.946 58.527 327.038 57.812 C 328.420 56.906,348.237 37.052,348.790 36.018 C 349.254 35.151,347.507 32.819,344.067 29.715 C 341.523 27.420,340.998 27.507,337.588 30.785 M301.479 55.600 C 299.716 57.360,297.953 58.800,297.560 58.800 C 296.826 58.800,292.000 63.003,292.000 63.643 C 292.000 64.475,294.735 62.266,296.716 59.833 C 297.620 58.723,298.784 59.128,300.726 61.228 C 302.201 62.826,302.874 63.264,303.887 63.289 C 305.077 63.319,307.991 61.785,307.997 61.125 C 308.005 60.362,310.390 58.310,310.998 58.544 C 311.530 58.748,311.323 59.086,309.929 60.290 C 308.978 61.110,307.661 62.401,307.003 63.157 C 305.082 65.363,307.050 64.014,309.730 61.287 L 312.060 58.916 309.801 56.253 C 307.841 53.943,305.903 52.400,304.961 52.400 C 304.808 52.400,303.241 53.840,301.479 55.600 M81.461 55.848 C 80.877 56.432,80.400 57.065,80.400 57.255 C 80.400 57.445,80.130 57.600,79.800 57.600 C 79.470 57.600,79.200 57.774,79.200 57.987 C 79.200 58.201,79.507 58.257,79.882 58.113 C 80.886 57.728,82.000 56.692,82.000 56.144 C 82.000 55.882,82.225 55.586,82.500 55.488 C 82.775 55.390,82.892 55.192,82.761 55.049 C 82.629 54.905,82.044 55.265,81.461 55.848 M322.352 62.400 C 318.849 65.921,318.683 66.001,317.531 64.700 C 317.093 64.205,317.571 64.970,318.594 66.400 C 319.616 67.830,320.756 69.517,321.127 70.150 C 321.497 70.782,322.688 72.672,323.774 74.350 C 335.009 91.711,341.769 114.786,342.660 138.817 C 343.026 148.699,343.309 147.917,337.073 154.237 C 331.328 160.059,330.857 160.855,330.823 164.801 C 330.776 170.197,326.970 189.080,324.776 194.800 C 324.312 196.010,323.832 197.360,323.710 197.800 C 322.756 201.221,316.148 215.545,314.375 218.036 C 313.949 218.634,313.600 219.212,313.600 219.321 C 313.600 223.106,296.497 242.577,285.272 251.571 C 283.002 253.390,281.045 255.138,280.923 255.456 C 280.610 256.271,281.167 256.699,281.616 255.988 C 281.893 255.549,281.989 255.534,281.994 255.927 C 281.998 256.270,282.277 256.366,282.796 256.201 C 283.936 255.840,285.066 256.782,286.956 259.670 C 289.177 263.065,289.365 263.047,293.477 259.027 C 295.482 257.066,297.319 255.600,297.771 255.600 C 298.854 255.600,298.075 254.904,296.800 254.734 L 295.800 254.600 296.642 253.800 C 297.106 253.360,298.071 252.550,298.787 252.000 C 305.108 247.146,313.414 239.173,317.125 234.400 C 318.579 232.530,320.411 230.254,321.198 229.342 C 321.984 228.430,323.145 226.720,323.778 225.542 C 324.411 224.364,325.417 222.770,326.013 222.000 C 326.609 221.230,327.583 219.700,328.177 218.600 C 328.770 217.500,329.603 216.060,330.028 215.400 C 331.070 213.780,333.200 209.242,333.200 208.643 C 333.200 208.377,333.360 207.989,333.555 207.780 C 337.298 203.777,343.756 179.543,344.565 166.461 C 344.897 161.107,345.489 160.034,351.384 154.114 C 357.335 148.137,357.008 149.137,356.650 138.031 C 355.969 116.875,348.812 90.957,340.100 78.093 C 339.605 77.362,339.200 76.674,339.200 76.563 C 339.200 76.383,334.547 69.302,332.000 65.607 C 329.703 62.275,326.956 59.206,326.267 59.203 C 325.864 59.201,324.102 60.640,322.352 62.400 M286.900 68.582 C 285.634 69.896,285.099 70.853,286.100 70.011 C 286.375 69.780,287.095 69.220,287.700 68.767 C 288.741 67.986,289.156 67.181,288.500 67.216 C 288.335 67.225,287.615 67.839,286.900 68.582 M221.229 88.608 C 219.594 90.254,218.514 91.594,218.829 91.587 C 219.495 91.571,221.200 90.232,221.200 89.724 C 221.200 89.533,221.588 89.112,222.062 88.788 C 223.267 87.966,224.132 86.945,224.239 86.217 C 224.358 85.406,224.602 85.212,221.229 88.608 M214.486 95.313 C 213.339 96.474,212.400 97.554,212.400 97.713 C 212.400 98.187,213.623 98.037,214.129 97.500 C 215.687 95.846,217.200 93.918,217.200 93.586 C 217.200 92.816,216.533 93.240,214.486 95.313 M157.047 101.982 L 153.800 105.164 153.800 145.014 C 153.800 184.403,153.809 184.871,154.600 185.450 C 155.945 186.435,168.521 186.174,167.985 185.172 C 167.738 184.710,167.633 169.971,167.698 144.796 L 167.800 105.149 170.300 102.770 C 171.675 101.462,172.800 100.207,172.800 99.983 C 172.800 99.758,173.205 99.411,173.700 99.212 C 174.290 98.976,172.132 98.842,167.447 98.825 L 160.294 98.800 157.047 101.982 M220.136 105.560 C 217.176 107.945,200.833 124.543,202.203 123.773 L 203.406 123.097 206.191 125.748 C 210.133 129.501,210.069 129.516,216.302 123.389 C 219.106 120.633,221.850 117.893,222.400 117.299 C 222.950 116.706,224.411 115.136,225.646 113.810 C 227.806 111.493,228.800 110.067,228.800 109.285 C 228.800 108.747,223.238 104.000,222.608 104.000 C 222.313 104.000,221.201 104.702,220.136 105.560 M194.273 195.029 C 190.603 198.674,187.600 201.810,187.600 201.998 C 187.600 202.765,189.905 201.083,191.400 199.225 C 192.280 198.131,193.301 197.130,193.669 197.001 C 194.037 196.872,194.999 196.009,195.808 195.083 C 196.616 194.157,198.160 192.439,199.239 191.265 C 200.913 189.442,201.581 188.400,201.073 188.400 C 201.003 188.400,197.943 191.383,194.273 195.029 M183.465 205.932 C 182.873 206.550,182.511 207.178,182.661 207.328 C 183.084 207.751,183.677 207.648,183.400 207.200 C 183.264 206.980,183.463 206.800,183.843 206.800 C 184.223 206.800,184.415 206.682,184.270 206.537 C 184.125 206.392,184.211 206.028,184.460 205.727 C 185.348 204.658,184.523 204.828,183.465 205.932 M307.694 258.473 C 306.212 259.863,304.949 261.109,304.886 261.243 C 304.162 262.781,303.682 262.998,302.781 262.195 L 301.891 261.400 302.558 262.600 C 304.793 266.618,305.269 267.414,305.767 267.976 C 306.072 268.319,306.814 269.500,307.418 270.600 C 308.021 271.700,309.146 273.590,309.918 274.800 C 310.690 276.010,311.723 277.630,312.213 278.400 C 312.704 279.170,313.855 281.060,314.771 282.600 C 320.980 293.034,324.136 297.600,325.139 297.600 C 325.531 297.600,327.419 296.025,329.333 294.100 C 333.682 289.728,333.703 289.972,328.256 281.400 C 327.417 280.080,326.072 277.904,325.266 276.565 C 322.511 271.988,319.002 266.318,315.791 261.258 C 311.758 254.903,311.568 254.838,307.694 258.473 M154.800 265.492 C 154.470 265.617,154.068 265.918,153.906 266.160 C 153.744 266.402,153.609 282.586,153.606 302.124 L 153.600 337.649 148.545 342.724 C 145.765 345.516,143.251 348.163,142.960 348.606 C 142.548 349.234,142.419 352.604,142.380 363.806 C 142.346 373.543,142.189 378.371,141.893 378.727 C 141.264 379.488,154.919 379.243,155.681 378.481 C 156.079 378.083,156.247 374.670,156.400 363.881 C 156.633 347.447,156.048 349.496,162.340 343.106 C 164.882 340.524,167.127 338.116,167.329 337.755 C 167.546 337.367,167.668 322.552,167.626 301.582 C 167.558 267.715,167.589 266.045,168.277 265.645 C 169.052 265.194,155.972 265.045,154.800 265.492 M367.687 283.443 C 365.670 285.551,364.967 286.049,364.213 285.905 L 363.268 285.724 364.094 286.841 C 365.202 288.340,365.363 288.131,355.329 298.200 C 346.038 307.523,342.499 311.291,343.989 310.275 C 345.263 309.406,345.490 309.425,345.808 310.426 C 345.953 310.881,346.865 312.412,347.835 313.830 C 348.806 315.248,349.600 316.586,349.600 316.804 C 349.600 317.022,349.773 317.200,349.984 317.200 C 350.195 317.200,349.070 318.390,347.484 319.844 C 345.898 321.298,344.019 323.123,343.309 323.900 C 342.164 325.153,341.939 325.250,341.326 324.756 C 340.818 324.347,340.885 324.623,341.582 325.800 C 343.947 329.797,346.545 334.041,351.686 342.303 C 359.845 355.416,359.200 353.804,359.200 361.072 C 359.200 366.786,359.145 367.246,358.428 367.513 C 357.399 367.895,370.757 367.854,371.857 367.471 C 373.885 366.766,374.280 357.733,372.464 353.590 C 371.432 351.236,364.008 338.987,359.733 332.585 C 358.816 331.212,357.219 328.584,356.184 326.744 C 355.148 324.905,354.051 323.113,353.745 322.762 C 352.533 321.373,350.822 317.490,351.157 316.891 C 351.342 316.561,357.248 310.510,364.281 303.445 C 380.771 286.881,379.965 288.414,374.803 283.431 C 371.312 280.061,370.921 280.062,367.687 283.443 M328.302 311.500 C 327.296 312.545,325.374 314.274,324.031 315.343 L 321.589 317.286 322.823 318.543 C 323.502 319.234,324.700 320.640,325.485 321.666 C 326.585 323.103,327.084 323.469,327.657 323.257 C 328.541 322.930,333.501 318.132,334.087 317.037 C 334.464 316.334,334.527 316.327,334.874 316.947 C 335.179 317.491,334.579 318.278,331.777 321.011 C 329.867 322.875,328.506 324.400,328.755 324.400 C 329.393 324.400,335.599 317.916,335.599 317.249 C 335.601 315.879,331.322 309.600,330.388 309.600 C 330.247 309.600,329.309 310.455,328.302 311.500 M318.600 319.600 C 318.202 320.040,317.634 320.400,317.338 320.400 C 317.042 320.400,316.800 320.543,316.800 320.718 C 316.800 320.893,315.540 322.345,314.000 323.944 C 311.543 326.495,310.752 327.600,311.383 327.600 C 311.768 327.600,318.692 320.556,319.148 319.700 C 319.742 318.587,319.549 318.552,318.600 319.600 M90.202 352.918 C 87.783 355.383,85.475 357.804,85.074 358.298 C 83.398 360.362,85.845 358.625,88.600 355.795 C 90.140 354.213,91.808 352.704,92.306 352.442 C 93.082 352.034,95.200 349.228,95.200 348.608 C 95.200 347.983,94.184 348.859,90.202 352.918 M80.062 363.175 C 78.727 364.405,78.232 365.064,78.744 364.931 C 79.655 364.692,82.400 362.177,82.400 361.581 C 82.400 361.023,82.388 361.031,80.062 363.175 M239.955 362.335 C 239.210 362.960,236.977 365.075,234.993 367.035 C 230.533 371.443,224.836 377.521,227.006 375.557 C 229.321 373.462,229.761 373.411,231.040 375.088 C 235.113 380.428,235.605 380.428,241.189 375.100 C 245.719 370.779,247.345 368.334,246.277 367.455 C 245.973 367.205,244.873 365.695,243.832 364.100 C 241.667 360.784,241.758 360.825,239.955 362.335 M92.000 367.891 C 90.839 368.333,89.328 369.709,81.431 377.519 C 71.758 387.086,69.364 389.610,70.909 388.613 L 72.017 387.897 74.676 390.543 C 77.454 393.307,78.396 393.866,79.363 393.324 C 79.848 393.053,89.138 383.905,102.119 370.918 C 103.704 369.333,105.360 367.963,105.800 367.873 C 106.240 367.783,103.450 367.699,99.600 367.686 C 95.750 367.673,92.330 367.766,92.000 367.891 " stroke="none" fill="#1eeede" fill-rule="evenodd"></path><path id="path2" d="M199.728 8.700 C 205.849 8.762,215.749 8.762,221.728 8.700 C 227.708 8.637,222.700 8.587,210.600 8.587 C 198.500 8.587,193.608 8.638,199.728 8.700 M170.456 13.396 C 167.971 15.923,165.726 18.128,165.469 18.296 C 165.211 18.463,142.500 18.691,115.000 18.803 L 65.000 19.006 115.000 19.101 C 159.129 19.184,165.137 19.124,166.168 18.586 C 167.110 18.095,167.887 18.047,170.168 18.338 C 173.576 18.773,178.002 18.410,179.044 17.611 C 179.460 17.292,181.510 15.296,183.600 13.175 C 185.690 11.054,187.670 9.217,188.000 9.091 C 188.330 8.966,185.534 8.849,181.787 8.832 L 174.975 8.800 170.456 13.396 M51.043 19.833 C 50.642 20.876,50.760 70.072,51.163 69.823 C 51.362 69.700,51.422 69.993,51.297 70.474 L 51.068 71.349 52.234 70.502 C 52.875 70.036,55.647 67.393,58.394 64.628 C 63.558 59.429,64.228 58.978,64.519 60.500 C 64.614 60.995,64.603 60.770,64.495 60.000 C 64.030 56.693,63.977 20.310,64.436 19.756 C 64.827 19.285,63.859 19.200,58.092 19.200 C 52.254 19.200,51.251 19.290,51.043 19.833 M327.638 27.700 C 327.732 27.755,328.527 28.430,329.404 29.200 L 331.000 30.600 329.622 29.100 C 328.863 28.275,328.068 27.600,327.855 27.600 C 327.641 27.600,327.544 27.645,327.638 27.700 M306.868 34.069 C 303.495 37.396,300.570 40.552,300.369 41.083 C 300.167 41.614,299.821 41.937,299.601 41.800 C 299.380 41.664,299.200 41.887,299.200 42.296 C 299.200 42.705,298.993 43.247,298.741 43.499 C 297.890 44.350,302.730 49.200,304.429 49.200 C 304.843 49.200,314.968 39.175,318.310 35.457 C 319.030 34.656,319.874 34.000,320.186 34.000 C 320.498 34.000,320.881 33.792,321.038 33.538 C 321.217 33.248,321.148 33.185,320.851 33.369 C 320.561 33.548,319.245 32.563,317.459 30.831 C 313.647 27.135,314.011 27.023,306.868 34.069 M89.164 48.273 C 88.045 49.319,86.871 50.675,86.555 51.287 C 86.238 51.899,85.739 52.400,85.444 52.400 C 84.730 52.400,82.800 54.359,82.800 55.085 C 82.800 55.698,80.690 58.000,80.128 58.000 C 79.945 58.000,79.565 58.520,79.284 59.155 C 78.106 61.815,65.564 73.643,64.850 72.766 C 64.215 71.985,64.149 72.021,62.000 74.283 L 59.800 76.600 61.925 74.600 C 64.931 71.771,65.200 72.225,65.200 80.122 L 65.200 86.092 66.300 85.398 C 68.286 84.146,98.000 54.062,98.000 53.304 C 98.000 52.502,93.529 47.613,92.099 46.851 C 91.286 46.418,90.997 46.558,89.164 48.273 M71.395 65.206 C 65.908 70.703,65.353 71.152,64.846 70.506 C 64.321 69.836,64.305 69.838,64.546 70.533 C 64.686 70.936,64.800 71.341,64.800 71.433 C 64.800 72.238,67.162 70.006,77.567 59.370 C 77.658 59.277,77.656 59.200,77.562 59.200 C 77.467 59.200,74.692 61.903,71.395 65.206 M295.010 61.630 C 293.696 62.934,292.336 64.000,291.989 64.000 C 291.161 64.000,288.800 66.448,288.800 67.306 C 288.800 67.674,287.997 68.565,287.016 69.287 C 286.034 70.009,285.224 70.814,285.216 71.076 C 285.207 71.338,284.992 71.681,284.738 71.838 C 284.454 72.014,284.385 71.948,284.559 71.666 C 284.737 71.378,284.629 71.291,284.265 71.430 C 283.943 71.554,283.772 71.970,283.877 72.374 C 284.014 72.895,283.778 73.169,283.033 73.356 C 282.345 73.529,282.000 73.887,282.000 74.431 C 282.000 74.946,281.830 75.142,281.538 74.962 C 281.252 74.785,281.185 74.852,281.362 75.138 C 281.519 75.392,281.911 75.600,282.234 75.600 C 282.556 75.600,282.987 76.038,283.190 76.574 C 283.905 78.456,286.935 81.600,288.032 81.600 C 288.666 81.600,302.793 67.731,303.133 66.775 C 303.207 66.569,303.502 66.400,303.789 66.400 C 304.076 66.400,304.736 66.031,305.256 65.580 L 306.200 64.761 305.248 65.280 C 304.450 65.716,304.262 65.707,304.091 65.229 C 303.119 62.519,298.059 59.938,297.349 61.790 C 297.220 62.125,296.657 62.400,296.099 62.400 L 295.083 62.400 296.064 61.491 C 296.836 60.775,297.898 59.088,297.487 59.230 C 297.439 59.247,296.325 60.327,295.010 61.630 M40.408 82.334 C 34.465 88.255,30.800 92.201,30.800 92.680 C 30.800 93.534,37.570 100.400,38.412 100.400 C 38.695 100.400,40.192 99.140,41.738 97.600 C 44.809 94.542,44.950 94.475,46.169 95.500 C 46.998 96.198,46.998 96.197,46.247 95.310 C 45.833 94.821,45.158 94.314,44.747 94.183 C 42.925 93.605,46.268 89.064,52.042 84.273 C 52.889 83.571,53.012 83.383,52.368 83.775 C 50.879 84.681,50.800 84.419,50.800 78.557 C 50.800 75.522,50.632 73.143,50.408 73.005 C 50.193 72.872,45.693 77.070,40.408 82.334 M232.910 77.103 C 231.760 78.366,230.500 79.772,230.110 80.228 C 229.719 80.683,229.084 81.173,228.697 81.316 C 228.310 81.460,227.502 82.392,226.900 83.389 C 226.298 84.385,225.580 85.200,225.303 85.200 C 225.026 85.200,224.800 85.447,224.800 85.748 C 224.800 86.409,219.688 91.600,219.037 91.600 C 218.511 91.600,217.200 93.020,217.200 93.591 C 217.200 93.800,216.622 94.653,215.915 95.486 C 215.015 96.546,214.933 96.730,215.641 96.100 C 216.999 94.890,217.189 94.960,216.927 96.573 C 216.678 98.109,216.260 97.926,221.969 98.789 C 225.232 99.283,225.473 99.534,224.655 101.580 C 224.138 102.872,224.098 103.399,224.463 104.106 C 224.717 104.598,225.049 105.268,225.202 105.595 C 225.355 105.922,225.973 106.227,226.575 106.273 C 227.868 106.373,229.299 107.858,229.002 108.793 C 228.882 109.171,229.177 109.799,229.697 110.272 C 239.735 119.405,243.654 142.492,238.000 159.189 C 236.145 164.667,235.722 165.209,234.082 164.207 C 233.087 163.599,233.101 163.641,234.257 164.729 C 234.949 165.380,235.780 166.067,236.105 166.256 C 237.992 167.355,237.530 168.055,229.619 176.075 C 221.960 183.840,221.223 184.800,222.925 184.800 C 228.068 184.800,240.836 178.143,242.071 174.816 C 242.220 174.414,242.724 173.819,243.190 173.492 C 244.192 172.791,247.872 167.234,248.674 165.213 C 248.982 164.436,249.687 162.876,250.241 161.747 C 253.605 154.887,255.018 139.681,253.062 131.400 C 250.627 121.096,249.215 118.126,243.200 110.659 C 240.340 107.109,232.354 101.600,230.067 101.600 C 229.022 101.600,226.000 99.966,226.000 99.401 C 226.000 99.056,228.655 96.065,231.900 92.754 C 235.145 89.443,237.942 86.483,238.115 86.176 C 238.288 85.869,239.233 85.065,240.215 84.390 C 242.860 82.570,242.694 81.720,238.944 77.900 C 235.310 74.197,235.527 74.226,232.910 77.103 M56.000 80.200 C 55.028 81.190,54.323 82.000,54.433 82.000 C 54.543 82.000,55.428 81.190,56.400 80.200 C 57.372 79.210,58.077 78.400,57.967 78.400 C 57.857 78.400,56.972 79.210,56.000 80.200 M164.800 90.810 L 164.800 92.421 165.941 91.831 C 166.568 91.506,167.382 90.782,167.750 90.220 L 168.418 89.200 166.609 89.200 L 164.800 89.200 164.800 90.810 M58.165 95.414 C 52.270 101.121,51.200 101.966,51.200 100.912 C 51.200 100.504,50.255 99.277,49.100 98.185 L 47.000 96.200 48.900 98.214 L 50.800 100.227 50.806 115.814 C 50.809 124.386,50.970 131.650,51.164 131.955 C 51.483 132.459,53.326 130.859,59.864 124.401 C 61.180 123.100,62.076 180.444,60.792 183.822 C 60.567 184.413,58.632 186.619,56.492 188.725 C 54.351 190.830,52.195 193.094,51.700 193.754 L 50.800 194.955 50.806 223.178 C 50.809 238.700,50.949 251.615,51.117 251.879 C 51.539 252.544,51.657 252.448,57.758 246.500 C 63.164 241.228,64.146 240.564,64.556 241.900 C 64.675 242.285,64.655 242.060,64.512 241.400 C 64.170 239.814,63.892 196.996,64.213 195.230 C 64.401 194.197,65.398 192.920,68.273 190.030 C 70.369 187.924,72.560 185.584,73.142 184.831 L 74.200 183.463 74.327 157.431 C 74.456 130.963,74.311 125.600,73.465 125.600 C 73.209 125.600,71.649 126.885,69.999 128.455 C 63.702 134.451,63.960 135.165,64.001 111.877 C 64.017 102.155,64.024 93.435,64.016 92.500 C 63.993 90.007,63.493 90.255,58.165 95.414 M194.524 98.687 C 195.838 99.005,195.709 99.929,194.161 101.281 C 190.660 104.339,174.990 120.507,174.878 121.176 C 174.726 122.091,181.255 128.800,182.297 128.800 C 182.696 128.800,184.257 127.555,185.766 126.034 C 188.600 123.178,188.952 123.057,190.619 124.360 C 191.070 124.712,190.954 124.525,190.362 123.944 C 189.770 123.363,188.971 122.711,188.586 122.496 C 187.193 121.716,188.458 120.100,197.784 110.747 C 202.963 105.553,207.200 101.122,207.200 100.901 C 207.200 100.679,207.470 100.274,207.800 100.000 C 209.092 98.927,208.293 98.751,202.500 98.827 C 199.255 98.870,195.970 98.817,195.200 98.709 C 194.430 98.600,194.126 98.591,194.524 98.687 M198.400 127.000 C 197.428 127.990,196.723 128.800,196.833 128.800 C 196.943 128.800,197.828 127.990,198.800 127.000 C 199.772 126.010,200.477 125.200,200.367 125.200 C 200.257 125.200,199.372 126.010,198.400 127.000 M214.854 160.571 C 213.871 161.097,189.536 185.270,189.762 185.496 C 189.835 185.568,190.597 185.470,191.456 185.277 C 192.316 185.084,193.374 185.065,193.809 185.235 C 194.977 185.691,199.913 185.664,200.200 185.200 C 200.336 184.980,200.861 184.800,201.368 184.800 C 202.927 184.800,204.893 183.130,213.361 174.615 C 217.854 170.097,221.695 166.400,221.896 166.400 C 222.096 166.400,222.697 165.906,223.230 165.303 C 223.934 164.507,223.972 164.397,223.369 164.903 C 222.161 165.915,221.432 165.769,220.096 164.248 C 217.262 161.020,215.857 160.034,214.854 160.571 M229.000 160.286 C 229.440 160.393,230.250 160.867,230.800 161.340 L 231.800 162.200 230.830 161.100 C 230.297 160.495,229.487 160.021,229.030 160.046 C 228.226 160.091,228.225 160.099,229.000 160.286 M173.723 185.899 C 176.541 185.968,181.041 185.968,183.723 185.899 C 186.405 185.830,184.100 185.773,178.600 185.773 C 173.100 185.774,170.905 185.830,173.723 185.899 M202.922 186.657 C 202.660 186.764,202.547 187.117,202.672 187.442 C 202.812 187.808,202.690 187.989,202.349 187.916 C 202.047 187.852,201.845 188.025,201.900 188.300 C 201.955 188.575,201.820 188.800,201.600 188.800 C 201.380 188.800,201.200 188.977,201.200 189.193 C 201.200 189.728,188.960 202.000,188.426 202.000 C 188.192 202.000,188.000 202.180,188.000 202.400 C 188.000 202.620,187.865 202.779,187.700 202.753 C 186.731 202.600,186.337 202.858,186.578 203.488 C 186.724 203.866,186.712 204.046,186.554 203.887 C 186.163 203.496,184.800 204.773,184.800 205.530 C 184.800 205.864,184.522 206.445,184.181 206.821 C 183.240 207.861,186.987 212.919,189.300 213.730 C 190.411 214.119,216.400 188.615,216.400 187.136 C 216.400 186.422,204.537 186.001,202.922 186.657 M195.717 196.788 C 194.971 197.660,194.571 197.573,194.938 196.617 C 195.068 196.278,195.449 196.000,195.784 196.000 C 196.306 196.000,196.297 196.112,195.717 196.788 M190.042 202.918 C 189.528 203.432,189.007 203.035,189.388 202.420 C 189.535 202.182,189.839 202.100,190.062 202.239 C 190.336 202.407,190.329 202.631,190.042 202.918 M186.000 206.776 C 186.000 207.248,185.220 207.753,184.933 207.467 C 184.647 207.180,185.152 206.400,185.624 206.400 C 185.831 206.400,186.000 206.569,186.000 206.776 M79.429 239.181 C 78.815 239.584,78.018 240.343,77.657 240.869 C 76.469 242.599,75.065 244.000,74.518 244.000 C 74.222 244.000,72.069 245.891,69.733 248.201 C 66.377 251.521,65.372 252.308,64.943 251.952 C 64.539 251.617,64.400 251.620,64.400 251.964 C 64.400 253.389,65.825 252.588,69.255 249.232 C 72.587 245.972,74.000 244.985,74.000 245.917 C 74.000 247.038,65.507 254.826,65.016 254.154 C 64.526 253.484,62.400 254.187,62.400 255.018 C 62.400 255.128,62.847 254.925,63.394 254.567 C 64.865 253.603,65.200 254.914,65.200 261.626 C 65.200 265.167,65.350 267.200,65.610 267.200 C 66.165 267.200,70.314 263.304,75.766 257.663 C 78.245 255.098,81.832 251.433,83.736 249.517 C 87.837 245.394,87.817 245.512,84.948 242.413 C 81.484 238.672,80.808 238.276,79.429 239.181 M35.290 268.900 C 18.319 285.881,19.410 284.604,20.523 286.192 C 21.969 288.256,26.559 292.388,27.412 292.394 C 27.884 292.398,29.299 291.314,30.800 289.800 C 33.766 286.807,33.863 286.781,35.886 288.445 C 36.719 289.129,36.437 288.764,35.260 287.633 C 33.419 285.865,33.156 285.429,33.384 284.520 C 33.672 283.373,49.978 266.825,50.878 266.766 C 51.165 266.748,52.022 265.983,52.783 265.066 L 54.166 263.400 52.711 264.752 L 51.256 266.103 50.984 264.654 C 50.834 263.857,50.830 262.736,50.974 262.163 C 51.366 260.601,50.777 254.400,50.236 254.400 C 49.986 254.400,43.261 260.925,35.290 268.900 M281.700 256.957 C 282.085 257.249,282.400 257.785,282.400 258.148 C 282.400 260.496,286.048 265.323,287.059 264.313 C 288.138 263.233,285.252 258.319,283.040 257.471 C 282.688 257.336,282.400 257.039,282.400 256.813 C 282.400 256.586,282.085 256.406,281.700 256.413 C 281.033 256.425,281.033 256.451,281.700 256.957 M185.840 265.590 C 186.616 265.904,187.534 267.163,189.199 270.200 C 189.877 271.435,192.179 275.472,194.073 278.745 C 195.757 281.654,195.686 281.817,190.569 286.847 C 185.862 291.476,184.754 292.927,185.107 294.000 C 185.351 294.742,192.746 307.548,194.701 310.614 C 194.976 311.046,195.368 311.781,195.571 312.247 C 195.774 312.713,196.914 314.693,198.104 316.647 C 199.294 318.601,201.318 322.000,202.602 324.200 C 207.152 331.998,207.070 331.964,211.210 327.772 C 215.040 323.893,215.405 323.691,216.441 324.877 L 217.247 325.800 216.525 324.619 C 216.127 323.970,215.397 323.033,214.901 322.537 C 214.406 322.042,214.000 321.429,214.000 321.176 C 214.000 320.923,213.431 319.880,212.735 318.858 C 211.296 316.745,207.600 310.451,207.600 310.114 C 207.600 309.991,206.790 308.661,205.800 307.158 C 204.810 305.655,204.000 304.316,204.000 304.181 C 204.000 304.046,203.393 303.005,202.651 301.868 C 201.909 300.731,200.537 298.332,199.602 296.537 C 197.575 292.644,197.214 293.491,203.756 286.795 C 206.310 284.180,208.400 281.783,208.400 281.466 C 208.400 280.406,205.423 274.814,203.785 272.800 C 203.517 272.470,202.629 270.940,201.811 269.400 C 200.994 267.860,200.164 266.431,199.966 266.224 C 199.375 265.603,189.667 265.637,189.149 266.262 C 188.793 266.690,188.523 266.640,187.702 265.994 C 187.146 265.557,186.311 265.211,185.846 265.225 L 185.000 265.251 185.840 265.590 M62.162 272.914 C 61.701 273.181,60.711 274.120,59.962 275.000 C 59.213 275.880,58.240 276.864,57.800 277.188 C 56.547 278.108,52.040 282.933,51.809 283.600 C 51.695 283.930,51.017 284.547,50.301 284.970 C 49.344 285.537,49.173 285.780,49.654 285.891 C 50.765 286.146,50.800 287.412,50.800 327.417 C 50.800 348.822,50.909 366.619,51.043 366.967 C 51.237 367.473,51.977 367.606,54.743 367.628 C 61.114 367.680,61.122 367.658,51.027 377.737 C 46.722 382.036,43.200 385.817,43.200 386.140 C 43.200 387.081,50.053 393.600,51.042 393.600 C 51.585 393.600,52.769 392.665,54.251 391.066 C 57.048 388.049,57.494 387.841,58.797 388.951 L 59.794 389.800 58.997 388.854 C 58.559 388.334,57.795 387.753,57.300 387.564 C 55.221 386.769,55.363 386.591,69.465 372.325 C 73.216 368.530,73.161 368.202,68.745 368.056 C 66.905 367.995,65.283 367.823,65.141 367.673 C 64.420 366.914,64.273 360.283,64.040 318.200 C 63.902 293.120,63.746 272.555,63.694 272.500 C 63.504 272.298,62.980 272.440,62.162 272.914 M337.974 285.441 C 335.089 288.296,332.845 290.833,332.901 291.180 C 332.961 291.554,332.653 291.849,332.125 291.925 C 331.579 292.002,331.202 292.379,331.125 292.925 C 331.045 293.481,330.669 293.847,330.094 293.929 C 329.596 293.999,329.291 294.224,329.418 294.429 C 329.544 294.633,329.367 294.800,329.024 294.800 C 328.681 294.800,328.400 295.132,328.400 295.538 C 328.400 296.395,327.019 297.783,326.491 297.456 C 325.325 296.736,327.100 301.967,328.881 304.500 C 330.094 306.226,330.533 305.960,336.793 299.700 C 340.038 296.455,343.392 293.151,344.246 292.357 C 345.101 291.564,346.656 290.001,347.703 288.883 C 348.749 287.766,349.964 286.738,350.403 286.599 C 351.407 286.280,351.461 285.607,350.461 285.868 C 349.948 286.002,349.101 285.411,347.688 283.931 C 346.568 282.759,345.089 281.468,344.400 281.062 L 343.146 280.323 337.974 285.441 M43.385 290.900 L 41.400 293.000 43.500 291.015 C 44.655 289.923,45.600 288.978,45.600 288.915 C 45.600 288.617,45.229 288.949,43.385 290.900 M38.000 290.525 C 38.000 290.594,38.585 291.179,39.300 291.825 L 40.600 293.000 39.425 291.700 C 38.330 290.488,38.000 290.216,38.000 290.525 M320.772 318.100 C 320.745 318.955,320.727 318.960,320.418 318.200 C 320.125 317.481,320.062 317.521,319.799 318.600 C 319.618 319.339,318.324 320.952,316.428 322.800 C 313.201 325.946,311.728 327.638,312.754 327.020 C 313.195 326.754,313.266 326.961,313.102 328.043 C 312.838 329.791,313.526 331.096,315.672 332.925 C 318.003 334.911,318.086 334.869,323.815 328.858 C 325.567 327.020,327.360 325.366,327.800 325.183 C 328.411 324.929,328.446 324.845,327.949 324.825 C 327.590 324.811,327.081 324.278,326.816 323.640 C 326.156 322.044,324.889 320.941,322.997 320.313 C 321.526 319.825,321.410 319.681,321.526 318.491 C 321.596 317.767,321.464 317.200,321.226 317.200 C 320.992 317.200,320.787 317.605,320.772 318.100 M231.211 322.393 C 230.902 322.584,229.079 324.239,227.161 326.070 C 225.243 327.902,223.153 329.850,222.517 330.400 C 221.881 330.950,221.765 331.062,222.260 330.649 C 223.324 329.761,224.133 329.977,224.866 331.346 C 227.341 335.968,229.441 339.546,230.115 340.290 L 230.920 341.179 215.860 356.169 C 207.044 364.944,200.800 371.461,200.800 371.888 C 200.800 372.289,202.398 374.207,204.351 376.151 C 208.527 380.308,208.438 380.303,211.951 376.588 C 214.897 373.474,214.700 373.491,217.567 376.100 C 218.836 377.255,218.552 376.908,216.937 375.329 C 215.322 373.749,214.000 372.174,214.000 371.827 C 214.000 371.228,230.825 354.271,239.797 345.828 L 244.017 341.857 245.089 342.657 C 245.678 343.096,246.529 344.091,246.980 344.867 C 250.411 350.767,250.621 350.859,253.629 347.776 C 254.823 346.552,258.545 342.801,261.900 339.439 C 269.009 332.316,268.908 332.626,265.300 329.026 C 261.271 325.005,261.631 325.021,258.066 328.703 C 256.380 330.445,254.554 332.107,254.009 332.398 C 253.070 332.898,253.059 332.941,253.809 333.211 C 254.496 333.459,254.037 334.068,250.317 337.845 C 246.908 341.307,245.933 342.093,245.538 341.698 C 245.143 341.303,245.323 340.896,246.421 339.701 L 247.800 338.200 246.205 339.600 C 245.328 340.370,242.808 342.753,240.605 344.896 C 236.098 349.280,235.374 349.552,234.199 347.300 C 233.769 346.475,232.918 344.970,232.308 343.956 C 230.655 341.204,230.578 341.335,237.723 334.794 L 239.245 333.400 240.070 334.400 L 240.895 335.400 240.177 334.207 C 239.782 333.550,239.053 332.575,238.557 332.040 C 238.060 331.505,237.327 330.425,236.927 329.640 C 234.427 324.736,232.131 321.825,231.211 322.393 M250.800 335.102 C 248.467 337.563,247.359 339.086,249.419 337.000 C 251.436 334.958,252.988 333.199,252.770 333.202 C 252.676 333.203,251.790 334.058,250.800 335.102 M99.607 343.915 C 97.463 346.068,95.388 348.449,94.997 349.207 C 94.350 350.457,90.635 354.400,90.103 354.400 C 89.982 354.400,88.761 355.595,87.392 357.055 C 86.022 358.515,84.725 359.601,84.509 359.467 C 84.293 359.334,83.685 359.698,83.158 360.277 C 82.631 360.856,82.425 361.199,82.700 361.041 C 83.754 360.433,83.123 361.423,81.300 363.237 C 80.255 364.276,79.077 365.593,78.681 366.163 C 78.218 366.832,77.591 367.200,76.915 367.200 C 76.338 367.200,75.978 367.312,76.115 367.448 C 76.565 367.899,79.044 367.204,79.930 366.379 L 80.800 365.569 80.800 366.384 C 80.800 367.131,81.061 367.204,83.900 367.242 C 90.922 367.338,90.913 367.344,100.433 357.739 C 110.839 347.241,110.800 347.281,110.800 346.846 C 110.800 345.758,105.015 340.071,103.853 340.016 C 103.662 340.007,101.751 341.762,99.607 343.915 M93.992 352.408 C 92.810 353.590,92.592 353.172,93.673 351.798 C 94.160 351.179,94.624 350.871,94.704 351.112 C 94.784 351.353,94.464 351.936,93.992 352.408 M249.127 353.933 C 247.698 354.895,244.474 358.397,243.727 359.800 C 243.376 360.460,242.888 361.130,242.644 361.289 C 242.055 361.671,242.768 362.843,243.957 363.446 C 245.016 363.983,247.461 367.200,246.811 367.200 C 246.559 367.200,246.444 367.347,246.554 367.526 C 246.665 367.706,271.651 367.850,302.078 367.846 L 357.400 367.840 308.000 367.620 C 255.189 367.385,257.768 367.504,257.353 365.286 C 257.200 364.469,255.843 361.800,254.337 359.354 C 252.832 356.909,251.600 354.748,251.600 354.551 C 251.600 353.633,250.122 353.264,249.127 353.933 M107.500 367.875 C 109.031 368.178,108.549 368.940,103.940 373.500 C 98.181 379.199,98.182 379.200,105.529 379.200 C 108.583 379.200,112.144 379.267,113.441 379.348 C 114.739 379.429,115.141 379.420,114.335 379.327 C 111.961 379.052,112.255 378.358,116.638 373.883 C 121.329 369.095,121.624 368.430,119.100 368.337 C 118.165 368.303,115.870 368.219,114.000 368.150 C 112.130 368.082,109.700 367.951,108.600 367.861 C 107.500 367.770,107.005 367.777,107.500 367.875 " stroke="none" fill="#e7384d" fill-rule="evenodd"></path><path id="path3" d="M190.242 9.646 C 188.999 9.938,187.737 10.967,183.988 14.747 C 180.719 18.043,178.927 19.555,178.093 19.721 C 177.434 19.853,151.907 19.974,121.366 19.989 C 77.898 20.010,65.769 20.123,65.525 20.508 C 65.086 21.199,65.115 69.699,65.555 69.533 C 66.515 69.172,82.884 53.095,87.612 47.869 C 89.313 45.989,91.039 44.800,92.068 44.800 C 93.089 44.800,99.600 52.068,99.600 53.207 C 99.600 54.080,96.922 56.945,84.990 68.838 C 76.954 76.847,70.159 83.650,69.890 83.956 C 68.352 85.703,65.827 88.000,65.444 88.000 C 64.826 88.000,65.040 128.326,65.663 129.076 C 66.446 130.019,66.303 130.117,71.676 124.940 C 75.842 120.926,75.584 119.427,75.694 148.314 C 75.793 174.283,75.677 183.895,75.255 184.665 C 75.115 184.921,72.795 187.396,70.100 190.165 L 65.200 195.200 65.200 223.461 L 65.200 251.721 72.191 244.660 C 80.927 235.837,80.242 235.998,85.700 241.479 C 89.907 245.703,90.189 244.961,80.800 254.390 C 76.400 258.809,72.800 262.592,72.800 262.798 C 72.800 263.004,72.475 263.346,72.078 263.558 C 71.681 263.771,70.376 264.957,69.178 266.194 C 67.980 267.431,66.585 268.658,66.078 268.921 L 65.156 269.400 65.209 316.800 C 65.273 373.199,65.062 366.589,66.800 366.644 C 69.052 366.716,73.288 367.207,73.667 367.442 C 73.859 367.560,75.116 366.609,76.459 365.329 C 81.508 360.517,93.162 348.786,97.505 344.145 C 102.734 338.556,103.515 338.007,105.070 338.832 C 107.347 340.041,112.394 345.681,112.399 347.022 C 112.400 347.342,107.855 352.383,105.683 354.472 C 100.327 359.619,93.200 366.747,93.200 366.957 C 93.200 367.110,99.682 367.170,107.604 367.091 C 126.189 366.903,125.617 366.540,118.442 373.976 C 115.890 376.621,114.949 377.847,115.299 378.070 C 115.929 378.470,140.846 378.493,141.432 378.094 C 141.728 377.892,141.854 373.264,141.832 363.302 L 141.800 348.803 147.500 343.203 L 153.200 337.602 153.206 301.701 C 153.209 281.955,153.361 265.566,153.542 265.280 C 153.924 264.677,199.452 264.082,200.247 264.669 C 200.863 265.126,203.600 269.464,203.600 269.985 C 203.600 270.218,204.320 271.464,205.200 272.753 C 206.080 274.042,206.800 275.195,206.800 275.314 C 206.800 275.433,207.430 276.487,208.200 277.656 C 210.584 281.276,210.356 282.096,205.680 286.722 C 203.524 288.855,201.258 291.268,200.645 292.085 L 199.529 293.569 201.626 297.485 C 202.779 299.638,204.237 302.176,204.865 303.125 C 205.493 304.074,206.754 306.234,207.667 307.925 C 208.579 309.616,209.748 311.573,210.263 312.273 C 210.778 312.974,211.200 313.645,211.200 313.766 C 211.200 313.887,211.890 315.114,212.733 316.493 C 214.143 318.797,215.258 320.754,217.921 325.600 C 218.465 326.590,219.411 328.091,220.023 328.935 L 221.136 330.471 225.668 325.799 C 232.452 318.804,232.660 318.858,238.200 329.034 C 239.080 330.651,240.609 333.374,241.599 335.087 C 242.588 336.799,243.521 338.497,243.671 338.859 C 244.256 340.271,244.925 339.920,248.500 336.322 C 250.535 334.274,252.875 332.071,253.700 331.427 C 254.525 330.783,255.200 330.099,255.200 329.906 C 255.200 328.918,260.401 324.400,261.539 324.400 C 263.193 324.400,270.159 331.645,269.765 332.955 C 269.626 333.420,265.886 337.410,261.456 341.823 C 257.025 346.235,252.995 350.297,252.500 350.848 L 251.601 351.851 252.451 353.625 C 252.918 354.601,254.081 356.570,255.035 358.000 C 255.989 359.430,257.452 361.950,258.285 363.600 L 259.800 366.600 265.400 366.905 C 276.212 367.494,357.385 367.077,358.166 366.428 C 358.772 365.925,358.840 365.153,358.728 360.028 L 358.600 354.200 357.100 351.892 C 356.275 350.623,355.600 349.511,355.600 349.421 C 355.600 349.330,354.907 348.209,354.059 346.928 C 353.212 345.648,350.209 340.820,347.386 336.200 C 344.563 331.580,341.836 327.243,341.326 326.562 C 340.817 325.881,340.400 325.180,340.400 325.003 C 340.400 324.827,339.776 323.921,339.014 322.991 C 338.252 322.061,337.418 320.837,337.160 320.272 C 336.313 318.412,335.730 318.687,331.699 322.852 C 322.998 331.842,318.591 335.996,317.753 335.998 C 316.852 336.000,311.200 330.711,311.200 329.866 C 311.200 329.606,310.840 329.168,310.400 328.893 C 309.960 328.618,309.600 328.066,309.600 327.666 C 309.600 327.102,318.827 317.386,321.675 314.951 C 327.673 309.821,329.320 306.924,327.643 304.460 C 326.638 302.983,320.090 292.219,316.844 286.707 C 316.490 286.106,314.535 282.934,312.500 279.659 C 310.465 276.383,308.800 273.565,308.800 273.396 C 308.800 273.227,308.549 272.888,308.241 272.644 C 307.934 272.400,307.256 271.390,306.735 270.400 C 306.213 269.410,304.710 267.013,303.393 265.074 C 300.407 260.674,300.036 260.108,298.800 258.062 C 298.250 257.151,297.601 256.405,297.357 256.403 C 296.993 256.401,291.811 261.475,288.118 265.451 C 286.332 267.373,283.893 265.359,281.392 259.895 C 280.818 258.641,280.180 257.511,279.974 257.384 C 278.613 256.543,280.073 254.548,283.727 252.254 C 284.346 251.865,285.164 251.236,285.542 250.858 C 285.921 250.479,287.484 249.162,289.016 247.931 C 291.930 245.590,297.232 240.491,299.568 237.785 C 300.320 236.913,301.844 235.120,302.954 233.800 C 304.063 232.480,305.158 231.184,305.386 230.920 C 305.868 230.362,308.977 225.925,310.997 222.912 C 311.767 221.764,312.913 219.874,313.545 218.712 C 314.176 217.550,315.196 215.700,315.811 214.600 C 316.425 213.500,317.053 212.330,317.206 212.000 C 317.359 211.670,318.039 210.230,318.718 208.800 C 321.144 203.688,322.698 199.719,324.356 194.400 C 325.282 191.430,326.300 188.274,326.620 187.387 C 326.939 186.499,327.200 185.395,327.200 184.933 C 327.200 184.470,327.455 183.216,327.766 182.146 C 328.077 181.076,328.625 178.130,328.983 175.600 C 329.341 173.070,329.795 170.100,329.992 169.000 C 330.189 167.900,330.470 165.392,330.617 163.426 L 330.884 159.852 335.342 155.396 C 337.794 152.945,340.385 150.272,341.100 149.456 L 342.400 147.972 342.400 142.113 C 342.400 138.891,342.217 134.622,341.992 132.627 C 340.803 122.042,340.316 118.377,339.809 116.200 C 339.501 114.880,339.168 113.350,339.069 112.800 C 338.381 109.004,335.938 100.783,334.373 97.000 C 334.191 96.560,333.486 94.760,332.806 93.000 C 332.126 91.240,330.850 88.360,329.971 86.600 C 329.093 84.840,328.379 83.271,328.387 83.114 C 328.394 82.957,327.410 81.195,326.200 79.200 C 324.990 77.205,324.000 75.495,324.000 75.400 C 324.000 74.545,313.436 60.658,312.460 60.231 C 312.116 60.080,307.892 64.060,300.798 71.216 C 286.828 85.311,288.284 84.874,281.300 77.069 C 279.026 74.528,278.301 75.612,290.200 63.781 C 296.030 57.985,300.800 53.055,300.800 52.825 C 300.800 52.595,301.160 52.182,301.600 51.907 C 302.760 51.183,302.584 50.101,301.105 48.874 C 300.392 48.283,298.801 46.900,297.569 45.800 C 291.421 40.310,284.632 36.199,271.800 30.190 C 270.700 29.675,268.360 28.762,266.600 28.161 C 264.840 27.560,263.220 26.938,263.000 26.780 C 262.780 26.622,261.976 26.359,261.213 26.195 C 260.450 26.032,259.550 25.758,259.213 25.587 C 257.806 24.872,246.131 22.119,243.000 21.765 C 239.926 21.416,238.800 20.985,238.800 20.155 C 238.800 19.790,240.690 17.690,243.000 15.488 C 247.543 11.159,247.883 10.543,245.900 10.234 C 240.108 9.331,193.673 8.841,190.242 9.646 M322.918 32.801 C 320.543 35.222,315.675 40.116,312.100 43.678 C 304.524 51.224,304.786 50.435,308.608 54.221 C 312.750 58.323,310.774 59.474,326.743 43.663 L 334.962 35.526 331.250 31.963 C 329.208 30.003,327.470 28.400,327.387 28.400 C 327.304 28.400,325.293 30.381,322.918 32.801 M237.100 74.033 C 237.485 74.492,238.853 75.887,240.141 77.133 C 244.020 80.889,244.355 82.314,241.917 84.685 C 240.606 85.960,236.463 90.130,230.853 95.821 L 227.905 98.810 228.853 99.542 C 229.374 99.944,231.094 100.763,232.676 101.362 C 234.258 101.962,236.238 102.979,237.076 103.623 C 237.914 104.267,239.235 105.223,240.010 105.746 C 253.212 114.649,259.680 144.434,252.010 161.000 C 251.602 161.880,250.869 163.500,250.381 164.600 C 249.892 165.700,248.887 167.548,248.146 168.708 C 247.406 169.867,246.800 170.929,246.800 171.067 C 246.800 171.351,244.438 174.325,242.613 176.339 C 238.016 181.413,229.611 185.377,220.917 186.573 C 219.249 186.802,216.882 188.840,211.769 194.449 C 211.092 195.192,208.302 197.986,205.569 200.657 C 202.836 203.329,199.128 207.019,197.328 208.857 C 189.785 216.565,189.531 216.649,185.723 212.727 C 180.187 207.026,179.754 208.249,191.430 196.615 C 199.569 188.505,202.827 184.700,200.290 186.268 C 199.148 186.974,154.227 186.451,153.696 185.726 C 153.293 185.174,153.210 176.832,153.294 144.970 L 153.400 104.908 156.654 101.719 L 159.908 98.530 169.619 98.265 C 174.960 98.119,186.312 98.000,194.846 98.000 L 210.363 98.000 219.725 88.700 C 224.874 83.585,230.213 78.140,231.591 76.600 C 234.819 72.991,235.829 72.520,237.100 74.033 M56.898 80.580 C 53.434 84.007,50.481 86.943,50.337 87.105 C 50.192 87.267,48.971 88.591,47.624 90.047 L 45.175 92.694 46.487 94.255 C 48.390 96.517,51.402 99.200,52.038 99.200 C 52.339 99.200,54.761 96.995,57.419 94.300 C 60.077 91.605,62.742 89.040,63.341 88.600 L 64.430 87.800 63.967 84.437 C 63.713 82.587,63.587 79.654,63.687 77.920 C 63.938 73.590,63.981 73.573,56.898 80.580 M169.886 88.514 C 170.480 89.109,170.378 89.340,168.604 91.416 C 166.721 93.620,164.296 95.230,163.723 94.656 C 162.938 93.871,163.109 89.291,163.955 88.445 C 164.995 87.405,168.822 87.450,169.886 88.514 M214.330 99.003 C 214.223 99.111,213.249 99.278,212.167 99.375 C 210.559 99.519,210.018 99.777,209.200 100.793 C 208.650 101.476,204.015 106.247,198.900 111.395 C 193.785 116.543,189.600 121.006,189.600 121.312 C 189.600 121.619,191.037 123.332,192.793 125.119 L 195.986 128.369 199.212 125.284 C 207.287 117.565,221.465 103.217,222.074 102.147 C 223.044 100.444,222.606 100.130,218.800 99.803 C 216.930 99.643,215.203 99.353,214.963 99.159 C 214.723 98.965,214.438 98.895,214.330 99.003 M223.159 166.687 C 220.212 169.706,215.915 173.981,213.611 176.187 C 209.086 180.521,206.000 183.832,206.000 184.353 C 206.000 184.826,215.674 185.552,217.508 185.217 C 218.893 184.964,227.837 176.499,234.961 168.700 C 235.908 167.663,235.854 167.562,232.587 164.252 C 228.793 160.408,229.459 160.236,223.159 166.687 M56.366 262.618 C 52.535 266.496,48.248 270.779,46.839 272.135 C 34.158 284.343,33.897 284.745,36.730 287.699 C 37.839 288.854,39.136 290.250,39.611 290.800 C 40.949 292.347,41.118 292.214,52.748 280.462 L 63.696 269.400 63.792 262.932 C 63.844 259.375,63.762 256.262,63.609 256.015 C 63.441 255.742,60.598 258.334,56.366 262.618 M344.207 294.190 C 337.053 301.400,331.200 307.393,331.200 307.508 C 331.200 308.290,334.258 313.837,335.248 314.849 L 336.463 316.092 340.931 311.763 C 350.707 302.294,363.686 289.366,364.005 288.780 C 364.291 288.255,360.840 284.305,357.507 281.341 C 357.346 281.198,351.361 286.980,344.207 294.190 M237.600 349.267 C 232.431 354.530,227.003 359.961,222.645 364.227 C 219.116 367.681,215.600 371.595,215.600 372.068 C 215.600 372.381,217.061 374.106,218.847 375.902 L 222.094 379.166 233.959 367.283 C 250.019 351.198,249.873 351.399,247.584 348.489 C 247.163 347.953,246.368 346.565,245.819 345.404 C 244.378 342.359,244.388 342.354,237.600 349.267 M78.629 368.488 C 78.234 368.709,77.299 368.791,76.552 368.670 C 75.110 368.436,60.587 382.138,58.222 385.964 C 57.941 386.418,58.365 386.952,61.761 390.423 C 64.589 393.313,64.504 393.321,68.189 389.800 C 79.859 378.650,89.200 369.159,89.200 368.452 C 89.200 368.077,83.788 368.191,82.271 368.598 C 81.640 368.768,80.745 368.721,80.245 368.493 C 79.642 368.219,79.113 368.217,78.629 368.488 " stroke="none" fill="#050405" fill-rule="evenodd"></path><path id="path4" d="M188.000 9.091 C 187.670 9.217,185.690 11.054,183.600 13.175 C 181.510 15.296,179.460 17.292,179.044 17.611 C 178.002 18.410,173.576 18.773,170.168 18.338 C 167.887 18.047,167.110 18.095,166.168 18.586 C 165.140 19.122,158.997 19.195,114.949 19.198 C 72.691 19.200,64.826 19.287,64.436 19.756 C 64.095 20.167,64.024 25.377,64.165 39.656 C 64.269 50.295,64.347 61.364,64.338 64.253 C 64.312 72.508,64.068 72.478,71.539 65.146 C 78.068 58.739,79.346 57.600,80.005 57.600 C 80.222 57.600,80.400 57.447,80.400 57.261 C 80.400 56.707,84.876 52.400,85.451 52.400 C 85.741 52.400,86.238 51.899,86.555 51.287 C 87.741 48.994,91.090 46.313,92.099 46.851 C 93.529 47.613,98.000 52.502,98.000 53.304 C 98.000 54.062,68.286 84.146,66.300 85.398 L 65.200 86.092 65.200 80.122 C 65.200 72.186,64.952 71.784,61.853 74.715 C 46.341 89.386,42.176 94.000,44.446 94.000 C 45.223 94.000,51.200 100.103,51.200 100.897 C 51.200 101.969,52.240 101.150,58.165 95.414 C 63.493 90.255,63.993 90.007,64.016 92.500 C 64.024 93.435,64.017 102.155,64.001 111.877 C 63.960 135.165,63.702 134.451,69.999 128.455 C 71.649 126.885,73.209 125.600,73.465 125.600 C 74.311 125.600,74.456 130.963,74.327 157.431 L 74.200 183.463 73.142 184.831 C 72.560 185.584,70.369 187.924,68.273 190.030 C 65.398 192.920,64.401 194.197,64.213 195.230 C 63.994 196.438,64.113 231.318,64.387 246.088 C 64.523 253.421,64.476 253.402,69.733 248.201 C 72.069 245.891,74.211 244.000,74.492 244.000 C 75.053 244.000,76.693 242.369,77.714 240.796 C 78.073 240.244,78.921 239.465,79.599 239.064 L 80.833 238.336 84.016 241.519 C 87.944 245.447,87.950 245.280,83.736 249.517 C 81.832 251.433,78.245 255.098,75.766 257.663 C 70.410 263.205,66.167 267.200,65.638 267.200 C 65.418 267.200,65.202 264.589,65.128 261.019 C 64.951 252.463,65.330 252.498,57.511 260.317 C 53.945 263.883,50.877 266.800,50.692 266.800 C 49.975 266.800,33.640 283.501,33.393 284.487 C 33.126 285.551,39.739 292.600,41.004 292.600 C 41.287 292.600,42.984 291.215,44.774 289.522 C 46.565 287.828,48.828 285.938,49.803 285.322 C 50.778 284.705,51.675 283.930,51.796 283.600 C 52.011 283.014,55.255 279.577,58.951 276.020 C 59.968 275.042,60.800 274.101,60.800 273.931 C 60.800 273.474,63.230 272.296,63.537 272.604 C 63.682 272.748,63.911 293.327,64.046 318.333 C 64.273 360.291,64.420 366.913,65.141 367.673 C 65.283 367.823,66.905 367.995,68.745 368.056 C 73.161 368.202,73.216 368.530,69.465 372.325 C 55.596 386.355,55.241 386.791,57.100 387.487 C 57.485 387.632,59.130 389.066,60.755 390.675 C 64.583 394.464,64.551 394.468,69.400 389.600 C 75.175 383.803,74.309 383.919,68.232 389.757 C 64.429 393.410,64.660 393.387,61.743 390.405 C 58.365 386.952,57.942 386.418,58.222 385.964 C 58.791 385.043,62.568 381.061,68.600 375.023 C 74.870 368.746,75.037 368.614,76.800 368.543 C 78.827 368.462,79.446 368.450,81.300 368.461 C 82.015 368.465,84.085 368.395,85.900 368.305 C 87.715 368.216,89.200 368.280,89.200 368.447 C 89.200 368.900,86.614 371.778,82.847 375.519 C 81.009 377.344,79.581 378.914,79.673 379.007 C 79.766 379.099,81.722 377.267,84.021 374.936 C 86.319 372.605,88.993 370.045,89.963 369.249 L 91.726 367.800 100.563 367.806 C 105.423 367.809,111.380 367.925,113.800 368.065 C 116.220 368.204,118.785 368.337,119.500 368.359 C 121.582 368.425,121.128 369.300,116.638 373.883 C 114.225 376.347,112.562 378.357,112.681 378.666 C 112.971 379.423,141.290 379.456,141.916 378.700 C 142.182 378.379,142.348 373.059,142.380 363.806 C 142.437 347.668,142.213 348.911,145.647 345.690 C 146.756 344.651,147.859 343.440,148.099 343.001 C 148.338 342.561,147.019 343.681,145.167 345.490 L 141.800 348.779 141.832 363.289 C 141.854 373.261,141.728 377.892,141.432 378.094 C 140.846 378.493,115.929 378.470,115.299 378.070 C 114.949 377.847,115.890 376.621,118.442 373.976 C 125.617 366.540,126.189 366.903,107.604 367.091 C 99.682 367.170,93.200 367.110,93.200 366.957 C 93.200 366.747,100.327 359.619,105.683 354.472 C 107.855 352.383,112.400 347.342,112.399 347.022 C 112.394 345.681,107.347 340.041,105.070 338.832 C 103.515 338.007,102.734 338.556,97.505 344.145 C 93.162 348.786,81.508 360.517,76.459 365.329 C 75.116 366.609,73.859 367.560,73.667 367.442 C 73.288 367.207,69.052 366.716,66.800 366.644 C 65.062 366.589,65.273 373.199,65.209 316.800 L 65.156 269.400 66.078 268.921 C 66.585 268.658,67.980 267.431,69.178 266.194 C 70.376 264.957,71.681 263.771,72.078 263.558 C 72.475 263.346,72.800 263.004,72.800 262.798 C 72.800 262.592,76.400 258.809,80.800 254.390 C 90.189 244.961,89.907 245.703,85.700 241.479 C 80.242 235.998,80.927 235.837,72.191 244.660 L 65.200 251.721 65.200 223.461 L 65.200 195.200 70.100 190.165 C 72.795 187.396,75.115 184.921,75.255 184.665 C 75.677 183.895,75.793 174.283,75.694 148.314 C 75.584 119.427,75.842 120.926,71.676 124.940 C 66.303 130.117,66.446 130.019,65.663 129.076 C 65.040 128.326,64.826 88.000,65.444 88.000 C 65.827 88.000,68.352 85.703,69.890 83.956 C 70.159 83.650,76.954 76.847,84.990 68.838 C 96.922 56.945,99.600 54.080,99.600 53.207 C 99.600 52.068,93.089 44.800,92.068 44.800 C 91.039 44.800,89.313 45.989,87.612 47.869 C 82.884 53.095,66.515 69.172,65.555 69.533 C 65.115 69.699,65.086 21.199,65.525 20.508 C 65.769 20.123,77.898 20.010,121.366 19.989 C 151.907 19.974,177.434 19.853,178.093 19.721 C 178.927 19.555,180.716 18.045,183.976 14.759 C 187.978 10.724,188.919 9.976,190.430 9.627 C 193.986 8.808,239.976 9.311,245.900 10.234 C 247.883 10.543,247.543 11.159,243.000 15.488 C 238.051 20.205,237.733 22.068,241.977 21.502 C 242.859 21.384,242.766 21.296,241.300 20.867 C 239.048 20.207,239.007 20.301,243.593 15.543 C 248.756 10.185,248.753 10.017,243.484 9.252 C 240.261 8.785,189.197 8.636,188.000 9.091 M243.905 21.883 C 244.402 21.979,245.122 21.975,245.505 21.875 C 245.887 21.775,245.480 21.696,244.600 21.701 C 243.720 21.705,243.407 21.787,243.905 21.883 M246.400 22.153 C 246.400 22.237,248.065 22.691,250.100 23.162 C 255.179 24.337,258.483 25.216,259.213 25.587 C 259.550 25.758,260.450 26.032,261.213 26.195 C 261.976 26.359,262.780 26.622,263.000 26.780 C 263.220 26.938,264.840 27.560,266.600 28.161 C 268.360 28.762,270.700 29.675,271.800 30.190 C 280.215 34.130,284.461 36.394,288.747 39.223 C 294.230 42.842,294.390 42.961,297.569 45.800 C 298.801 46.900,300.392 48.283,301.105 48.874 C 302.584 50.101,302.760 51.183,301.600 51.907 C 301.160 52.182,300.800 52.595,300.800 52.825 C 300.800 53.055,296.030 57.985,290.200 63.781 C 278.301 75.612,279.026 74.528,281.300 77.069 C 288.284 84.874,286.828 85.311,300.798 71.216 C 307.892 64.060,312.116 60.080,312.460 60.231 C 313.059 60.493,318.662 67.443,320.711 70.466 C 322.211 72.679,322.758 73.024,321.710 71.095 C 319.896 67.759,313.099 59.194,312.275 59.208 C 312.014 59.212,310.139 60.832,308.108 62.808 C 306.078 64.783,304.158 66.400,303.842 66.400 C 303.525 66.400,303.207 66.569,303.133 66.775 C 302.793 67.731,288.666 81.600,288.032 81.600 C 286.926 81.600,283.200 77.678,283.200 76.513 C 283.200 76.220,282.750 75.809,282.200 75.600 C 281.650 75.391,281.200 75.028,281.200 74.793 C 281.200 73.956,296.633 58.800,297.485 58.800 C 298.244 58.800,299.070 58.068,303.048 53.869 C 305.173 51.627,306.658 52.318,310.913 57.530 C 311.984 58.842,312.010 58.850,312.903 58.130 C 314.308 56.996,334.557 36.415,334.943 35.728 C 335.297 35.097,333.868 33.373,330.052 29.825 C 327.199 27.173,327.441 27.137,323.882 30.748 C 322.120 32.537,320.440 34.000,320.149 34.000 C 319.858 34.000,319.030 34.656,318.310 35.457 C 314.968 39.175,304.843 49.200,304.429 49.200 C 302.730 49.200,297.890 44.350,298.741 43.499 C 299.720 42.520,299.230 41.919,298.146 42.771 C 296.640 43.956,296.670 43.967,290.558 39.918 C 282.187 34.372,270.395 28.630,262.400 26.209 C 261.190 25.842,259.930 25.405,259.600 25.237 C 258.241 24.546,246.400 21.780,246.400 22.153 M331.250 31.963 L 334.962 35.526 326.743 43.663 C 310.774 59.474,312.750 58.323,308.608 54.221 C 304.786 50.435,304.524 51.224,312.100 43.678 C 315.675 40.116,320.543 35.222,322.918 32.801 C 325.293 30.381,327.304 28.400,327.387 28.400 C 327.470 28.400,329.208 30.003,331.250 31.963 M297.310 59.891 C 297.164 60.271,296.603 60.991,296.064 61.491 L 295.083 62.400 296.099 62.400 C 296.668 62.400,297.224 62.114,297.364 61.749 C 297.554 61.253,297.947 61.152,299.007 61.324 C 300.599 61.582,300.634 61.529,299.754 60.186 C 299.006 59.045,297.695 58.887,297.310 59.891 M234.748 73.528 C 234.389 73.678,232.968 75.060,231.591 76.600 C 230.213 78.140,224.874 83.585,219.725 88.700 L 210.363 98.000 194.846 98.000 C 186.312 98.000,174.960 98.119,169.619 98.265 L 159.908 98.530 156.654 101.719 L 153.400 104.908 153.294 144.970 C 153.210 176.832,153.293 185.174,153.696 185.726 C 154.227 186.451,199.148 186.974,200.290 186.268 C 202.827 184.700,199.569 188.505,191.430 196.615 C 179.754 208.249,180.187 207.026,185.723 212.727 C 189.531 216.649,189.785 216.565,197.328 208.857 C 199.128 207.019,202.836 203.329,205.569 200.657 C 208.302 197.986,211.092 195.192,211.769 194.449 C 216.882 188.840,219.249 186.802,220.917 186.573 C 229.611 185.377,238.016 181.413,242.613 176.339 C 244.438 174.325,246.800 171.351,246.800 171.067 C 246.800 170.929,247.406 169.867,248.146 168.708 C 248.887 167.548,249.892 165.700,250.381 164.600 C 250.869 163.500,251.602 161.880,252.010 161.000 C 259.680 144.434,253.212 114.649,240.010 105.746 C 239.235 105.223,237.914 104.267,237.076 103.623 C 236.238 102.979,234.258 101.962,232.676 101.362 C 231.094 100.763,229.374 99.944,228.853 99.542 L 227.905 98.810 230.853 95.821 C 236.463 90.130,240.606 85.960,241.917 84.685 C 244.355 82.314,244.020 80.889,240.141 77.133 C 238.853 75.887,237.485 74.492,237.100 74.033 C 236.376 73.172,235.866 73.062,234.748 73.528 M63.687 77.920 C 63.587 79.654,63.713 82.587,63.967 84.437 L 64.430 87.800 63.341 88.600 C 62.742 89.040,60.077 91.605,57.419 94.300 C 54.761 96.995,52.339 99.200,52.038 99.200 C 51.402 99.200,48.390 96.517,46.487 94.255 L 45.175 92.694 47.624 90.047 C 48.971 88.591,50.192 87.267,50.337 87.105 C 52.641 84.526,63.285 74.405,63.532 74.558 C 63.718 74.673,63.787 76.186,63.687 77.920 M238.944 77.900 C 242.694 81.720,242.860 82.570,240.215 84.390 C 239.233 85.065,238.288 85.869,238.115 86.176 C 237.942 86.483,235.145 89.443,231.900 92.754 C 228.655 96.065,226.000 99.056,226.000 99.401 C 226.000 99.966,229.022 101.600,230.067 101.600 C 232.354 101.600,240.340 107.109,243.200 110.659 C 249.215 118.126,250.627 121.096,253.062 131.400 C 255.018 139.681,253.605 154.887,250.241 161.747 C 249.687 162.876,248.982 164.436,248.674 165.213 C 247.872 167.234,244.192 172.791,243.190 173.492 C 242.724 173.819,242.220 174.414,242.071 174.816 C 240.836 178.143,228.068 184.800,222.925 184.800 C 221.223 184.800,221.960 183.840,229.619 176.075 C 237.573 168.011,238.001 167.356,236.048 166.225 C 235.691 166.018,234.159 164.623,232.642 163.125 C 229.208 159.733,228.983 159.738,225.329 163.300 C 223.693 164.895,222.139 166.275,221.877 166.366 C 221.615 166.458,217.753 170.199,213.296 174.681 C 204.892 183.132,202.925 184.800,201.368 184.800 C 200.861 184.800,200.336 184.980,200.200 185.200 C 199.917 185.658,194.982 185.694,193.840 185.246 C 193.423 185.082,191.893 185.177,190.440 185.457 C 186.511 186.216,155.596 186.177,154.550 185.413 C 153.825 184.883,153.800 183.521,153.800 145.014 L 153.800 105.164 157.047 101.982 L 160.294 98.800 177.047 98.723 C 186.261 98.681,194.250 98.677,194.800 98.715 C 195.350 98.753,198.635 98.779,202.100 98.774 C 208.251 98.764,209.076 98.941,207.800 100.000 C 207.470 100.274,207.200 100.679,207.200 100.901 C 207.200 101.122,202.963 105.553,197.784 110.747 C 188.372 120.186,187.178 121.724,188.643 122.512 C 189.060 122.735,190.377 123.927,191.570 125.159 C 192.764 126.392,194.285 127.806,194.950 128.301 L 196.159 129.202 208.579 116.853 C 221.425 104.080,222.160 103.488,223.820 104.576 C 224.854 105.254,225.271 104.631,224.379 103.739 C 224.085 103.445,224.162 102.812,224.633 101.633 C 225.475 99.530,225.245 99.285,221.969 98.789 C 216.260 97.926,216.678 98.109,216.927 96.573 C 217.205 94.856,216.966 94.860,215.127 96.603 C 213.799 97.862,212.400 98.438,212.400 97.727 C 212.400 97.372,228.678 81.200,229.035 81.200 C 229.184 81.200,229.647 80.795,230.063 80.300 C 235.423 73.925,235.122 74.006,238.944 77.900 M324.009 75.286 C 323.998 75.634,327.567 81.640,328.117 82.200 C 328.334 82.420,327.811 81.297,326.955 79.704 C 325.400 76.808,324.026 74.747,324.009 75.286 M328.402 83.224 C 328.401 83.566,328.664 84.196,328.987 84.624 C 329.751 85.634,329.759 85.196,329.002 83.746 C 328.674 83.116,328.404 82.881,328.402 83.224 M329.612 85.659 C 329.606 85.802,330.048 86.702,330.595 87.659 C 331.143 88.617,331.592 89.220,331.593 89.000 C 331.596 88.557,329.632 85.245,329.612 85.659 M163.955 88.445 C 163.109 89.291,162.938 93.871,163.723 94.656 C 164.296 95.230,166.721 93.620,168.604 91.416 C 170.378 89.340,170.480 89.109,169.886 88.514 C 168.822 87.450,164.995 87.405,163.955 88.445 M167.750 90.220 C 167.382 90.782,166.568 91.506,165.941 91.831 L 164.800 92.421 164.800 90.810 L 164.800 89.200 166.609 89.200 L 168.418 89.200 167.750 90.220 M331.618 89.800 C 331.612 90.343,334.231 96.769,334.603 97.120 C 334.766 97.274,334.762 96.950,334.595 96.400 C 334.144 94.922,331.624 89.334,331.618 89.800 M334.830 98.000 C 334.828 98.576,335.957 100.866,335.986 100.346 C 335.994 100.206,335.737 99.486,335.416 98.746 C 335.094 98.006,334.831 97.670,334.830 98.000 M218.800 99.803 C 222.606 100.130,223.044 100.444,222.074 102.147 C 221.465 103.217,207.287 117.565,199.212 125.284 L 195.986 128.369 192.793 125.119 C 191.037 123.332,189.600 121.619,189.600 121.312 C 189.600 121.006,193.785 116.543,198.900 111.395 C 204.015 106.247,208.650 101.476,209.200 100.793 C 210.018 99.777,210.559 99.519,212.167 99.375 C 213.249 99.278,214.223 99.111,214.330 99.003 C 214.438 98.895,214.723 98.965,214.963 99.159 C 215.203 99.353,216.930 99.643,218.800 99.803 M336.030 101.254 C 336.014 101.614,336.263 102.514,336.584 103.254 C 337.317 104.941,337.330 103.895,336.600 102.000 C 336.303 101.230,336.047 100.894,336.030 101.254 M337.268 105.400 C 337.262 105.840,337.411 106.560,337.600 107.000 C 338.038 108.019,338.038 106.968,337.600 105.600 C 337.343 104.796,337.277 104.757,337.268 105.400 M226.238 106.338 C 226.064 106.620,228.490 108.800,228.979 108.800 C 229.414 108.800,229.188 108.109,228.500 107.333 C 227.688 106.418,226.509 105.900,226.238 106.338 M338.057 108.600 C 338.061 109.434,339.121 112.500,339.163 111.800 C 339.177 111.580,338.933 110.590,338.621 109.600 C 338.309 108.610,338.055 108.160,338.057 108.600 M339.240 113.200 C 339.225 113.750,339.467 115.010,339.779 116.000 C 340.507 118.310,340.532 117.264,339.817 114.400 C 339.511 113.174,339.256 112.643,339.240 113.200 M340.450 119.030 C 340.423 119.486,340.656 121.646,340.969 123.830 C 341.282 126.013,341.681 129.420,341.855 131.400 C 342.030 133.380,342.234 134.438,342.308 133.751 C 342.382 133.064,342.157 130.094,341.807 127.151 C 341.100 121.200,340.526 117.767,340.450 119.030 M342.560 141.800 C 342.561 145.100,342.622 146.397,342.698 144.682 C 342.773 142.967,342.772 140.267,342.697 138.682 C 342.621 137.097,342.559 138.500,342.560 141.800 M342.000 148.263 C 342.000 148.481,339.480 151.205,336.400 154.315 C 331.791 158.970,330.806 160.168,330.836 161.085 L 330.872 162.200 331.230 160.968 C 331.451 160.206,333.205 158.143,335.819 155.568 C 340.495 150.962,342.626 148.492,342.248 148.115 C 342.112 147.978,342.000 148.045,342.000 148.263 M232.587 164.252 C 235.854 167.562,235.908 167.663,234.961 168.700 C 227.837 176.499,218.893 184.964,217.508 185.217 C 215.674 185.552,206.000 184.826,206.000 184.353 C 206.000 183.832,209.086 180.521,213.611 176.187 C 215.915 173.981,220.212 169.706,223.159 166.687 C 229.459 160.236,228.793 160.408,232.587 164.252 M330.470 165.069 C 330.431 166.208,330.228 168.008,330.019 169.069 C 329.260 172.914,328.290 179.624,328.468 179.802 C 328.836 180.169,330.870 166.543,330.707 164.800 L 330.540 163.000 330.470 165.069 M327.631 182.662 C 327.397 183.508,327.218 184.650,327.236 185.200 C 327.253 185.750,327.524 185.137,327.838 183.838 C 328.473 181.212,328.303 180.244,327.631 182.662 M216.400 187.136 C 216.400 187.757,195.582 209.073,191.322 212.815 C 189.667 214.268,188.891 214.043,186.633 211.457 C 185.646 210.326,184.304 208.845,183.653 208.166 L 182.468 206.932 185.134 204.339 C 186.600 202.912,189.787 199.688,192.215 197.173 C 194.644 194.658,198.132 191.205,199.967 189.500 L 203.304 186.400 209.852 186.400 C 215.945 186.400,216.400 186.451,216.400 187.136 M325.793 189.867 C 324.817 193.074,322.912 198.987,322.205 201.000 C 321.978 201.649,322.008 201.686,322.364 201.200 C 322.605 200.870,323.060 199.790,323.374 198.800 C 323.689 197.810,324.322 196.010,324.782 194.800 C 325.735 192.294,327.236 186.703,327.015 186.482 C 326.934 186.401,326.385 187.925,325.793 189.867 M194.938 196.617 C 194.571 197.573,194.971 197.660,195.717 196.788 C 196.297 196.112,196.306 196.000,195.784 196.000 C 195.449 196.000,195.068 196.278,194.938 196.617 M189.388 202.420 C 189.007 203.035,189.528 203.432,190.042 202.918 C 190.329 202.631,190.336 202.407,190.062 202.239 C 189.839 202.100,189.535 202.182,189.388 202.420 M321.016 203.683 C 320.640 204.628,319.693 206.750,318.911 208.400 C 318.130 210.050,317.364 211.670,317.209 212.000 C 317.055 212.330,316.425 213.500,315.811 214.600 C 315.196 215.700,314.176 217.550,313.545 218.712 C 312.298 221.006,310.554 223.675,307.899 227.356 C 305.967 230.034,305.486 230.800,305.734 230.800 C 305.998 230.800,310.919 224.022,311.978 222.200 C 312.490 221.320,313.275 219.970,313.722 219.200 C 316.360 214.657,317.899 211.659,319.852 207.255 C 321.058 204.536,321.967 202.233,321.872 202.139 C 321.778 202.044,321.392 202.739,321.016 203.683 M184.984 206.827 C 184.839 207.061,184.816 207.349,184.933 207.467 C 185.220 207.753,186.000 207.248,186.000 206.776 C 186.000 206.265,185.309 206.299,184.984 206.827 M303.669 232.921 C 299.314 238.416,293.156 244.666,288.300 248.517 C 286.595 249.869,285.200 251.129,285.200 251.317 C 285.200 252.174,294.616 243.763,298.671 239.283 C 303.177 234.306,305.752 231.197,305.349 231.221 C 305.157 231.232,304.401 231.997,303.669 232.921 M283.600 252.303 C 279.940 254.724,278.634 256.555,279.974 257.384 C 280.180 257.511,280.818 258.641,281.392 259.895 C 283.893 265.359,286.332 267.373,288.118 265.451 C 291.811 261.475,296.993 256.401,297.357 256.403 C 297.601 256.405,298.250 257.151,298.800 258.062 C 300.041 260.117,300.417 260.691,303.396 265.074 C 305.678 268.433,306.083 269.097,307.464 271.737 C 307.791 272.363,308.150 272.783,308.262 272.672 C 308.513 272.420,306.865 269.435,305.226 267.173 C 304.552 266.242,304.000 265.343,304.000 265.175 C 304.000 265.007,303.415 263.952,302.700 262.830 C 301.985 261.707,300.680 259.627,299.800 258.206 C 297.764 254.919,297.665 254.932,293.477 259.027 C 289.365 263.047,289.177 263.065,286.956 259.670 C 285.163 256.930,283.890 255.803,282.981 256.152 C 282.210 256.448,282.241 257.164,283.040 257.471 C 285.252 258.319,288.138 263.233,287.059 264.313 C 286.035 265.336,282.400 260.489,282.400 258.101 C 282.400 257.711,282.040 257.168,281.600 256.893 C 280.363 256.120,280.626 255.424,282.900 253.446 C 285.081 251.549,285.314 251.170,283.600 252.303 M63.792 262.932 L 63.696 269.400 52.748 280.462 C 41.118 292.214,40.949 292.347,39.611 290.800 C 39.136 290.250,37.839 288.854,36.730 287.699 C 33.897 284.745,34.158 284.343,46.839 272.135 C 48.248 270.779,52.535 266.496,56.366 262.618 C 60.598 258.334,63.441 255.742,63.609 256.015 C 63.762 256.262,63.844 259.375,63.792 262.932 M160.617 264.700 C 155.815 264.785,153.744 264.963,153.524 265.310 C 153.352 265.580,153.253 282.000,153.302 301.800 L 153.392 337.800 153.596 301.933 C 153.708 282.207,153.950 265.917,154.133 265.733 C 154.966 264.899,186.500 265.124,187.647 265.972 C 188.515 266.613,188.811 266.668,189.156 266.253 C 189.668 265.637,199.382 265.611,199.966 266.224 C 200.164 266.431,200.994 267.860,201.811 269.400 C 202.629 270.940,203.517 272.470,203.785 272.800 C 205.423 274.814,208.400 280.406,208.400 281.466 C 208.400 281.783,206.310 284.180,203.756 286.795 C 197.214 293.491,197.575 292.644,199.602 296.537 C 200.537 298.332,201.909 300.731,202.651 301.868 C 203.393 303.005,204.000 304.046,204.000 304.181 C 204.000 304.316,204.810 305.655,205.800 307.158 C 206.790 308.661,207.600 309.991,207.600 310.114 C 207.600 310.451,211.296 316.745,212.735 318.858 C 213.431 319.880,214.000 320.923,214.000 321.176 C 214.000 321.429,214.448 322.084,214.996 322.632 C 215.543 323.180,216.561 324.656,217.258 325.914 C 221.008 332.682,220.263 332.671,227.166 326.070 C 231.341 322.079,231.599 321.902,232.351 322.523 C 232.988 323.048,235.783 327.395,236.927 329.640 C 237.327 330.425,238.106 331.553,238.657 332.149 C 239.653 333.222,241.963 337.003,243.149 339.500 C 244.077 341.453,244.682 341.169,249.334 336.600 C 251.687 334.290,253.796 332.400,254.023 332.400 C 254.249 332.400,255.946 330.858,257.793 328.973 C 261.685 325.001,261.264 324.998,265.300 329.026 C 268.908 332.626,269.009 332.316,261.900 339.439 C 258.545 342.801,254.823 346.552,253.629 347.776 C 250.621 350.859,250.411 350.767,246.980 344.867 C 246.529 344.091,245.678 343.096,245.089 342.657 L 244.017 341.857 239.797 345.828 C 229.361 355.649,213.956 371.277,214.075 371.924 C 214.236 372.794,221.301 379.600,222.044 379.600 C 222.354 379.600,226.205 375.956,230.604 371.502 C 239.760 362.229,240.565 361.496,241.741 361.363 C 242.213 361.310,242.713 361.252,242.851 361.233 C 242.990 361.215,243.311 360.705,243.564 360.100 C 245.184 356.240,251.600 351.809,251.600 354.551 C 251.600 354.748,252.832 356.909,254.337 359.354 C 255.843 361.800,257.202 364.483,257.359 365.318 C 257.805 367.703,255.626 367.611,309.330 367.502 L 359.000 367.400 359.110 361.178 C 359.240 353.816,359.903 355.499,351.675 342.303 C 348.622 337.406,344.894 331.330,343.391 328.800 C 340.437 323.829,337.029 318.406,336.518 317.862 C 336.343 317.676,340.993 312.681,346.852 306.762 C 352.710 300.843,357.383 296.000,357.237 296.000 C 357.090 296.000,356.077 296.915,354.985 298.033 C 353.893 299.151,349.269 303.668,344.709 308.071 L 336.419 316.077 334.948 314.538 L 333.477 313.000 334.539 314.835 C 335.122 315.844,335.595 316.924,335.589 317.235 C 335.571 318.152,328.563 325.200,327.669 325.200 C 327.490 325.200,325.832 326.775,323.985 328.700 C 318.034 334.902,318.008 334.915,315.672 332.925 C 313.540 331.108,312.838 329.791,313.096 328.087 C 313.291 326.797,313.276 326.782,312.247 327.251 C 311.671 327.514,311.200 327.910,311.200 328.131 C 311.200 328.352,311.095 328.429,310.968 328.301 C 310.550 327.883,311.629 326.360,314.237 323.687 C 315.647 322.242,316.800 320.912,316.800 320.730 C 316.800 320.549,317.056 320.400,317.369 320.400 C 317.682 320.400,318.554 319.680,319.307 318.800 C 320.060 317.920,320.911 317.200,321.198 317.200 C 321.855 317.200,325.551 314.230,328.289 311.502 L 330.378 309.421 331.789 310.789 C 333.465 312.414,333.527 312.258,332.200 309.762 C 331.650 308.727,331.200 307.750,331.200 307.590 C 331.200 306.839,357.143 281.207,357.653 281.454 C 357.954 281.600,359.615 283.208,361.344 285.029 L 364.489 288.339 362.644 290.311 C 361.630 291.396,360.800 292.401,360.800 292.546 C 360.800 292.690,361.700 291.815,362.800 290.600 C 365.350 287.784,365.414 288.063,361.276 283.924 C 357.010 279.659,357.445 279.677,353.527 283.600 C 351.770 285.360,350.179 286.800,349.993 286.800 C 349.807 286.800,348.787 287.726,347.727 288.857 C 346.667 289.989,345.101 291.564,344.246 292.357 C 343.392 293.151,340.038 296.455,336.793 299.700 C 330.532 305.960,330.095 306.225,328.879 304.500 C 326.247 300.764,325.822 298.459,327.500 297.015 C 328.105 296.494,328.450 295.918,328.266 295.734 C 328.082 295.550,327.506 295.895,326.985 296.500 C 324.898 298.925,323.622 297.474,314.771 282.600 C 313.855 281.060,312.703 279.170,312.213 278.400 C 309.276 273.793,308.800 273.094,308.800 273.383 C 308.800 273.559,310.465 276.383,312.500 279.659 C 314.535 282.934,316.490 286.106,316.844 286.707 C 320.090 292.219,326.638 302.983,327.643 304.460 C 329.320 306.924,327.673 309.821,321.675 314.951 C 318.827 317.386,309.600 327.102,309.600 327.666 C 309.600 328.066,309.960 328.618,310.400 328.893 C 310.840 329.168,311.200 329.606,311.200 329.866 C 311.200 330.711,316.852 336.000,317.753 335.998 C 318.591 335.996,322.998 331.842,331.699 322.852 C 335.730 318.687,336.313 318.412,337.160 320.272 C 337.418 320.837,338.252 322.061,339.014 322.991 C 339.776 323.921,340.400 324.827,340.400 325.003 C 340.400 325.180,340.817 325.881,341.326 326.562 C 341.836 327.243,344.563 331.580,347.386 336.200 C 350.209 340.820,353.212 345.648,354.059 346.928 C 354.907 348.209,355.600 349.330,355.600 349.421 C 355.600 349.511,356.275 350.623,357.100 351.892 L 358.600 354.200 358.728 360.028 C 358.840 365.153,358.772 365.925,358.166 366.428 C 357.385 367.077,276.212 367.494,265.400 366.905 L 259.800 366.600 258.285 363.600 C 257.452 361.950,255.989 359.430,255.035 358.000 C 254.081 356.570,252.918 354.601,252.451 353.625 L 251.601 351.851 252.500 350.848 C 252.995 350.297,257.025 346.235,261.456 341.823 C 265.886 337.410,269.626 333.420,269.765 332.955 C 270.159 331.645,263.193 324.400,261.539 324.400 C 260.401 324.400,255.200 328.918,255.200 329.906 C 255.200 330.099,254.525 330.783,253.700 331.427 C 252.875 332.071,250.535 334.274,248.500 336.322 C 244.925 339.920,244.256 340.271,243.671 338.859 C 243.521 338.497,242.588 336.799,241.599 335.087 C 240.609 333.374,239.080 330.651,238.200 329.034 C 232.660 318.858,232.452 318.804,225.668 325.799 L 221.136 330.471 220.023 328.935 C 219.410 328.091,218.315 326.320,217.589 325.000 C 214.939 320.182,214.237 318.953,212.733 316.493 C 211.890 315.114,211.200 313.887,211.200 313.766 C 211.200 313.645,210.778 312.974,210.263 312.273 C 209.748 311.573,208.579 309.616,207.667 307.925 C 206.754 306.234,205.493 304.074,204.865 303.125 C 204.237 302.176,202.779 299.638,201.626 297.485 L 199.529 293.569 200.645 292.085 C 201.258 291.268,203.524 288.855,205.680 286.722 C 210.356 282.096,210.584 281.276,208.200 277.656 C 207.430 276.487,206.800 275.433,206.800 275.314 C 206.800 275.195,206.080 274.042,205.200 272.753 C 204.320 271.464,203.600 270.218,203.600 269.985 C 203.600 269.443,200.838 265.095,200.247 264.706 C 199.830 264.432,175.928 264.428,160.617 264.700 M331.996 291.404 C 331.594 291.889,331.619 292.000,332.127 292.000 C 332.874 292.000,333.362 291.348,332.852 291.032 C 332.653 290.909,332.268 291.077,331.996 291.404 M330.202 293.198 C 329.540 293.930,329.535 294.000,330.151 294.000 C 330.522 294.000,330.932 293.722,331.062 293.383 C 331.434 292.412,330.998 292.318,330.202 293.198 M358.778 294.300 L 357.400 295.800 358.900 294.422 C 360.296 293.138,360.584 292.800,360.278 292.800 C 360.212 292.800,359.537 293.475,358.778 294.300 M321.600 317.980 C 321.600 318.175,321.496 318.605,321.369 318.937 C 321.118 319.591,321.893 320.120,323.759 320.567 L 324.918 320.845 323.759 319.457 C 322.558 318.019,321.600 317.364,321.600 317.980 M150.657 340.063 C 149.593 341.167,149.055 341.889,149.461 341.668 C 150.416 341.148,152.999 338.466,152.768 338.235 C 152.670 338.137,151.720 338.960,150.657 340.063 M105.693 341.116 C 107.289 342.275,110.800 346.214,110.800 346.846 C 110.800 347.281,110.839 347.241,100.433 357.739 C 90.913 367.344,90.922 367.338,83.900 367.242 C 81.045 367.203,80.800 367.135,80.800 366.371 C 80.800 365.600,80.754 365.589,80.138 366.205 C 78.970 367.373,76.000 368.112,76.000 367.234 C 76.000 367.033,76.580 366.358,77.289 365.734 C 77.998 365.110,82.215 360.955,86.660 356.500 C 91.105 352.045,94.842 348.400,94.964 348.400 C 95.086 348.400,97.053 346.510,99.335 344.200 C 103.989 339.490,103.667 339.646,105.693 341.116 M245.819 345.404 C 246.368 346.565,247.163 347.953,247.584 348.489 C 249.873 351.399,250.019 351.198,233.959 367.283 L 222.094 379.166 218.847 375.902 C 217.061 374.106,215.600 372.381,215.600 372.068 C 215.600 371.595,219.116 367.681,222.645 364.227 C 227.003 359.961,232.431 354.530,237.600 349.267 C 244.388 342.354,244.378 342.359,245.819 345.404 M93.673 351.798 C 93.187 352.416,92.866 353.000,92.961 353.094 C 93.258 353.392,94.857 351.572,94.704 351.112 C 94.624 350.871,94.160 351.179,93.673 351.798 M244.825 365.579 C 245.628 366.883,246.239 367.483,246.617 367.338 C 247.065 367.166,246.914 366.732,245.928 365.359 C 244.152 362.886,243.276 363.061,244.825 365.579 M76.663 381.652 C 75.377 382.943,74.477 383.999,74.663 383.998 C 75.092 383.995,79.395 379.655,79.169 379.454 C 79.076 379.372,77.948 380.361,76.663 381.652 " stroke="none" fill="#6e2830" fill-rule="evenodd"></path></g></svg>